<svg width="1920" height="234" viewBox="0 0 1920 234" fill="#000000" xmlns="http://www.w3.org/2000/svg">
<g clip-path="url(#clip0_38_70)">
<path d="M44.6888 81.2813C44.6888 81.2813 50.6058 90.0999 44.2807 101.79C37.9557 113.411 46.389 125.169 46.389 125.169C46.389 125.169 47.2051 116.009 52.0339 108.762C56.8627 101.516 51.0138 89.0744 51.0138 89.0744C51.0138 89.0744 50.3337 87.092 44.6888 81.2813Z" fill="#000000"/>
<path d="M1291.33 74.2401C1291.33 74.2401 1296.43 83.6056 1289.02 94.6117C1281.67 105.618 1288.95 118.128 1288.95 118.128C1288.95 118.128 1290.65 109.036 1296.09 102.268C1301.53 95.5004 1296.91 82.5802 1296.91 82.5802C1296.91 82.5802 1296.43 80.5294 1291.33 74.2401Z" fill="#000000"/>
<path d="M-33.4558 65.6949C-33.4558 65.6949 -22.914 87.9806 -25.5665 94.2699L-27.1308 98.5766C-27.1308 98.5766 -23.1863 97.2778 -22.5742 92.4241C-21.9621 87.5021 -22.7102 79.2304 -23.5262 75.744C-24.4104 72.326 -28.4231 58.517 -22.03 56.7397C-15.6369 54.9623 -8.35985 55.2357 -6.11546 60.6362C-3.87108 66.1051 -2.71495 77.3163 -8.29186 85.4513C-13.8688 93.6546 -10.468 109.856 -10.468 109.856C-10.468 109.856 -8.56383 94.2699 -3.12291 90.9885C2.31801 87.7756 16.8043 74.035 17.9606 68.7028C17.9606 68.7028 14.492 87.6389 16.6683 95.0218C18.9127 102.405 19.7968 104.387 19.7968 104.387C19.7968 104.387 18.9126 84.3575 34.8272 73.5565C50.6737 62.8238 53.8704 51.6809 53.8704 51.6809L55.5707 44.3663C55.5707 44.3663 54.8226 52.638 62.8479 60.7046C70.8732 68.7712 73.1856 72.7361 73.1856 72.7361C73.1856 72.7361 78.8986 78.2734 73.6616 90.7835C68.4248 103.362 68.2887 108.694 68.2887 108.694C68.2887 108.694 72.9815 96.6625 75.4979 94.2699C78.0143 91.9456 82.231 79.3672 81.8229 76.9062C81.4148 74.4452 84.6795 45.7335 95.4932 42.1104C106.239 38.5556 110.048 43.0675 110.048 43.0675C110.048 43.0675 118.549 51.6126 107.463 63.5074C107.463 63.5074 120.181 62.4136 116.373 75.4706C112.564 88.5275 99.2337 80.8028 99.2337 80.8028C99.2337 80.8028 88.3519 70.2752 93.9288 62.6187C93.9288 62.6187 91.0044 62.0035 89.7122 74.1717C88.3519 86.34 86.8558 88.7326 86.8558 88.7326C86.8558 88.7326 83.3192 92.5609 81.3469 110.061C81.3469 110.061 81.9589 122.298 79.4424 126.126C76.926 129.954 72.3015 138.158 81.551 154.017C81.551 154.017 100.798 176.098 97.5335 189.155C94.2009 202.28 96.4452 209.663 96.4452 209.663C96.4452 209.663 98.8257 194.624 101.818 191.753C104.811 188.882 106.715 173.842 105.831 171.381C104.947 168.92 103.518 166.869 103.518 166.869C103.518 166.869 113.788 163.793 117.733 178.081C117.733 178.081 117.189 198.52 123.718 208.023C129.907 216.978 139.768 219.986 140.789 220.191C139.564 218.892 126.234 204.468 136.844 190.317C147.93 175.551 151.738 163.451 151.738 163.451C151.738 163.451 156.839 153.334 147.794 130.57C147.794 130.57 144.257 119.222 147.318 113.001C150.446 106.712 146.501 92.4925 146.501 92.4925C146.501 93.0394 146.434 106.301 139.564 112.249C132.627 118.401 132.015 121.819 132.015 121.819C132.015 121.819 130.587 120.794 130.179 136.449C129.703 152.035 126.098 158.256 126.098 158.256C126.098 158.256 124.738 161.195 122.63 163.383C123.854 161.811 126.642 157.025 124.942 148.48C122.834 137.679 120.589 130.775 120.589 130.775C120.589 130.775 118.957 119.495 124.942 114.3C130.927 109.104 132.967 106.712 132.967 106.712C132.967 106.712 141.401 100.149 139.836 87.3654C139.836 87.3654 132.015 72.5311 139.564 62.482C146.774 52.9798 151.67 61.73 152.214 62.7554C152.214 62.0718 152.418 51.9544 162.824 47.9895C173.638 43.9562 179.147 55.3041 179.147 55.3041C179.147 55.3041 183.771 64.2594 171.734 77.1112C159.696 89.8948 159.56 93.7913 159.56 93.7913C159.56 93.7913 150.378 108.216 161.6 124.622L164.797 128.997C164.184 127.698 159.084 117.102 162.076 107.6C165.273 97.4145 168.197 97.0043 168.197 97.0043C168.197 97.0043 179.487 93.9281 175.202 108.421C170.849 122.982 175.134 127.493 175.134 127.493C175.134 127.493 179.555 139.593 178.059 144.037C178.943 142.533 185.676 130.57 185.744 128.314C185.812 125.853 186.968 119.632 185.2 115.667C186.22 116.487 194.585 123.87 193.837 134.398C193.021 145.609 188.804 158.666 188.804 158.666C188.804 158.666 183.703 182.934 187.852 189.907C187.852 189.907 183.908 176.577 200.298 162.904C216.757 149.232 223.49 134.261 223.49 134.261C223.49 134.261 229.679 122.23 227.095 109.993C227.095 109.993 220.43 122.982 214.377 113.001C213.492 111.428 212.812 109.719 212.404 107.942C211.248 102.747 211.928 96.7992 212.812 92.3558C212.812 92.2874 212.812 92.2874 212.812 92.2874C213.424 89.4846 214.037 87.2971 214.377 86.1349C214.445 86.0666 214.445 86.0666 214.445 85.9982C214.581 85.4513 214.717 85.1779 214.717 85.1779C214.717 85.1779 214.649 85.1779 214.513 85.1095C212.608 84.2208 199.21 77.6581 196.082 67.5407C194.994 64.191 195.129 60.3628 197.238 56.2611C198.258 54.142 199.89 51.886 202.135 49.6301C202.135 49.6301 204.923 47.9211 208.664 47.4426C215.737 46.6222 226.142 50.1086 227.571 77.248C227.571 77.248 225.667 84.2208 225.803 92.4242C225.87 95.9106 226.279 99.6021 227.299 103.157C227.299 103.157 226.619 92.3558 233.624 85.2462C234.508 84.2892 235.392 83.1954 236.072 81.8965C235.528 87.9123 234.78 98.7134 236.616 103.84C239.133 111.087 240.153 113.001 240.153 113.001C240.153 113.001 238.316 93.1077 253.687 81.6231C268.99 70.2068 271.71 58.9272 271.71 58.9272L273.07 51.8177C273.07 53.0482 273.41 60.5679 281.027 67.5407C289.393 75.1972 291.909 79.0254 291.909 79.0254C291.909 79.0254 297.758 84.2892 293.133 97.0727C288.645 109.446 288.577 114.778 288.577 115.12C288.577 115.12 292.793 102.883 295.174 100.422C297.554 97.9614 301.227 85.2462 300.683 82.7852C300.139 80.3926 302.111 51.6126 312.721 47.5793C323.262 43.4776 327.207 47.7844 327.207 47.7844C327.207 47.7844 336.116 55.9194 325.643 68.2927C325.643 68.2927 338.225 66.5837 335.028 79.8457C331.832 93.0394 318.162 85.9299 318.162 85.9299C318.162 85.9299 306.872 75.8808 312.041 68.0193C311.7 68.0193 309.048 68.3611 308.368 79.7774C307.62 91.9456 306.192 94.4066 306.192 94.4066C306.192 94.4066 302.859 98.3715 301.703 115.872C301.703 115.872 302.859 128.04 300.479 132.005C298.166 135.902 293.882 144.242 303.879 159.691C303.879 159.691 324.078 180.815 321.358 194.009C318.638 207.134 321.222 214.449 321.222 214.449C321.222 214.449 322.922 199.272 325.779 196.333C328.635 193.393 329.86 178.286 328.839 175.825C327.819 173.432 326.323 171.518 326.323 171.518C326.323 171.518 336.457 167.895 341.013 181.977C341.013 181.977 341.353 202.417 348.29 211.577C354.82 220.123 364.613 222.584 365.769 222.857C364.205 221.285 350.807 207.681 360.6 193.325C371.006 178.081 374.203 165.844 374.203 165.844C374.203 165.844 378.896 155.521 368.83 133.304C368.83 133.304 364.749 122.161 367.538 115.804C370.394 109.446 365.769 95.3637 365.769 95.3637C365.769 95.3637 366.517 108.968 359.784 115.462C353.119 121.888 352.711 125.306 352.711 125.306C352.711 125.306 351.215 124.349 351.487 139.935C351.759 155.521 348.427 161.879 348.427 161.879C348.427 161.879 347.27 164.75 345.162 167.143C346.318 165.502 348.902 160.648 346.862 152.172C344.278 141.507 341.693 134.74 341.693 134.74C341.693 134.74 339.585 123.528 345.298 118.128C351.079 112.659 352.915 110.198 352.915 110.198C352.915 110.198 361.077 103.225 358.9 90.6468C358.9 90.6468 350.467 76.1542 357.54 65.8317C364.681 55.4408 370.122 65.6266 370.122 65.6266C370.122 65.6266 369.51 54.8939 380.052 50.3821C390.661 45.8019 396.646 56.8764 396.646 56.8764C396.646 56.8764 401.611 65.5583 390.253 78.8887C378.964 92.0823 378.896 96.0473 378.896 96.1156C378.896 96.1156 370.394 110.882 382.296 126.741L385.697 130.98C384.948 129.681 379.44 119.29 382.024 109.719C384.745 99.4653 387.669 98.9184 387.669 98.9184C387.669 98.9184 398.755 95.2953 395.082 109.993C391.478 124.691 395.898 128.997 395.898 128.997C395.898 128.997 400.931 141.029 399.571 145.472C399.571 145.472 406.576 131.732 406.576 129.271C406.508 126.878 407.392 120.521 405.352 116.624C405.352 116.624 415.145 123.802 414.873 135.013C414.533 146.224 410.929 159.418 410.929 159.418C410.929 159.418 406.916 183.823 411.405 190.522C411.405 190.522 406.848 177.465 422.559 163.109C438.337 148.754 444.39 133.509 444.39 133.509C444.39 133.509 450.035 121.273 446.907 109.173C446.907 109.173 440.854 122.366 434.393 112.727C427.932 103.157 433.44 85.0412 433.44 85.0412C433.44 85.0412 432.556 84.6994 431.128 84.0157C429.972 83.4689 428.544 82.7169 426.911 81.7598C418.206 76.5644 405.488 65.4899 419.294 50.177C419.294 50.177 425.755 45.8703 432.42 48.2629C435.821 49.4934 439.289 52.5013 441.874 58.7905C443.098 59.4058 444.05 60.3628 444.662 61.6617C446.635 65.9001 448.063 74.3085 445.138 81.3497C444.73 84.6994 444.458 89.553 445.07 94.5434C445.342 97.1411 445.886 99.8072 446.771 102.337C446.771 102.337 446.022 94.7484 449.763 87.9123C455.068 83.8107 465.814 72.326 466.562 67.8142C466.562 67.8142 464.249 84.9044 466.562 91.4671C468.806 97.9614 469.758 99.6704 469.758 99.6704C469.758 99.6704 468.126 81.7598 481.864 71.5057C495.535 61.1832 497.983 51.0657 497.983 51.0657L499.139 44.5714C499.139 45.4601 499.343 52.3646 506.416 58.7905C513.897 65.6266 516.142 69.113 516.142 69.113C516.142 69.113 521.447 73.7616 517.298 85.2463C513.354 96.3207 513.285 101.174 513.285 101.516C513.285 101.516 516.958 90.5101 519.134 88.2541C521.243 86.0666 524.507 74.5819 524.031 72.4628C523.555 70.2752 525.255 44.4347 534.777 40.7432C544.298 37.0517 547.835 40.9483 547.835 40.9483C547.835 40.9483 555.792 48.1946 546.407 59.3374C546.407 59.3374 557.697 57.8335 554.908 69.6599C552.052 81.5547 539.742 75.1972 539.742 75.1972C539.742 75.1972 529.608 66.1735 534.233 59.1323C534.233 59.1323 531.648 58.7222 530.968 69.6599C530.288 80.5977 528.996 82.8536 528.996 82.8536C528.996 82.8536 526.072 86.4084 525.051 102.131C525.051 102.131 526.14 113.069 524.031 116.624C521.855 120.11 518.114 127.63 527.092 141.439C527.092 141.439 545.251 160.375 542.87 172.201C540.49 184.096 542.802 190.591 542.802 190.591C542.802 190.591 544.23 176.987 546.815 174.321C549.399 171.655 550.419 158.051 549.535 155.932C548.583 153.744 547.291 152.035 547.291 152.035C547.291 152.035 556.336 148.754 560.485 161.4C560.485 161.4 560.825 179.721 567.082 187.925C573.339 196.128 582.929 198.11 582.929 198.11C582.929 198.11 568.782 185.258 578.1 171.518C587.417 157.846 590.274 146.84 590.274 146.84C590.274 146.84 594.423 137.542 585.377 117.649C585.377 117.649 581.705 107.669 584.221 101.926C586.669 96.184 582.521 83.6056 582.521 83.6056C582.521 83.6056 583.201 95.7739 577.216 101.585C571.231 107.395 570.891 110.471 570.891 110.471C570.891 110.471 569.531 109.651 569.803 123.597C570.075 137.611 567.15 143.353 567.15 143.353C567.15 143.353 566.198 145.609 564.498 147.592C565.586 145.814 567.354 141.576 565.654 134.603C563.274 125.032 561.029 118.948 561.029 118.948C561.029 118.948 559.125 108.968 564.226 104.046C569.327 99.1236 571.027 96.936 571.027 96.936C571.027 96.936 578.304 90.6468 576.4 79.2989C576.4 79.2989 568.714 66.3786 575.108 57.0132C581.433 47.7161 586.397 56.8081 586.397 56.8081C586.397 56.8081 585.785 47.2375 595.307 43.1359C604.76 38.9658 610.201 48.9466 610.201 48.9466C610.201 48.9466 614.69 56.7397 604.488 68.7029C594.355 80.5977 594.287 84.1525 594.287 84.2208C594.287 84.2208 586.737 97.4829 597.415 111.702L600.476 115.462C599.796 114.3 594.831 105.003 597.143 96.3891C599.592 87.1604 602.176 86.6818 602.176 86.6818C602.176 86.6818 612.106 83.4689 608.909 96.6626C605.645 109.788 609.657 113.684 609.657 113.684C609.657 113.684 614.214 124.554 612.99 128.45C612.99 128.45 619.247 116.145 619.247 113.958C619.179 111.77 619.927 106.096 618.227 102.678C619.179 103.43 626.932 109.583 626.728 119.017C626.456 129.134 623.191 140.961 623.191 140.961C623.191 140.961 619.723 162.904 623.735 168.92C623.735 168.92 619.587 157.23 633.733 144.242C647.811 131.322 653.252 117.649 653.252 117.649C653.252 117.649 658.217 106.643 655.429 95.7739C655.429 95.7739 651.62 104.114 646.995 101.721C646.111 101.311 645.159 100.422 644.207 99.0552C641.622 95.227 641.146 89.9632 641.418 85.2463C641.486 83.674 641.622 82.17 641.826 80.8028C642.439 76.9062 643.255 74.1034 643.255 74.1034C643.255 74.1034 642.575 73.83 641.486 73.2831C635.365 70.4803 615.642 59.5425 630.537 42.8624C630.537 42.8624 650.736 29.3953 654.477 66.5153C654.477 66.5153 654.408 66.7204 654.34 67.1306C654.068 68.5662 653.388 72.8046 653.388 77.7949C653.456 81.5548 653.932 85.7931 655.293 89.6214C655.293 89.6214 654.681 83.6056 657.401 77.7265C659.917 77.8633 662.026 78.4785 663.318 79.7774C666.379 82.8536 668.691 89.7581 662.978 95.4321C657.265 101.174 662.638 110.882 662.638 110.882C662.638 110.882 663.454 100.969 669.439 98.2349C675.288 95.6371 690.318 85.7248 691.747 82.1017C691.475 83.674 689.706 94.4066 692.631 98.3716C695.895 102.678 697.119 103.84 697.119 103.84C697.119 103.84 694.331 91.4671 711.674 82.8536C729.085 74.3085 731.805 66.9939 731.805 66.9939L733.097 62.277C733.097 62.4137 733.165 67.5408 742.959 71.5057C752.957 75.6074 755.949 77.7949 755.949 77.7949C755.949 77.7949 763.022 80.5294 758.057 88.9378C753.637 96.5259 753.433 99.9439 753.433 100.628C753.433 100.628 757.853 92.6293 760.506 90.8519C763.226 89.1429 766.967 80.8028 766.287 79.2989C765.607 77.8633 766.831 59.6109 779.005 56.0561C791.179 52.5697 795.872 54.894 795.872 54.894C795.872 54.894 806.481 59.2007 794.783 67.8826C794.783 67.8826 809.27 65.695 806.073 74.3085C802.877 82.8536 786.69 79.709 786.69 79.709C786.69 79.709 773.428 74.4452 778.869 69.0447C778.189 69.1131 775.536 69.9334 775.128 76.7011C774.652 84.4259 773.156 86.0666 773.156 86.0666C773.156 86.0666 769.415 88.8694 768.667 100.012C768.667 100.012 770.435 107.532 767.851 110.198C765.267 112.864 760.642 118.538 772.748 127.288C772.748 127.288 796.96 138.705 794.307 147.181C791.655 155.727 794.851 160.033 794.851 160.033C794.851 160.033 796.28 150.394 799.476 148.275C802.673 146.156 803.557 136.585 802.265 135.15C801.04 133.714 799.272 132.62 799.272 132.62C799.272 132.62 810.834 129.476 816.683 137.884C816.683 137.884 817.771 150.668 826.136 155.795C834.57 160.854 847.016 161.332 847.016 161.332C847.016 161.332 828.245 153.744 839.807 143.216C851.369 132.689 854.633 124.691 854.633 124.691C854.633 124.691 859.666 117.786 847.22 104.798C847.22 104.798 842.119 98.1665 845.112 93.9281C848.172 89.6214 842.323 81.213 842.323 81.213C842.323 81.213 843.615 89.7581 836.134 94.4067C828.585 99.0552 828.245 101.243 828.245 101.243C828.245 101.243 826.477 100.764 827.361 110.54C828.177 120.247 824.572 124.554 824.572 124.554C824.572 124.554 823.144 126.741 820.628 128.45C821.512 127.835 825.388 124.349 822.396 118.606C818.995 112.181 815.799 108.147 815.799 108.147C815.799 108.147 812.942 101.311 819.403 97.4145C825.865 93.4496 827.973 91.7406 827.973 91.7406C827.973 91.7406 837.154 86.6135 834.23 78.8887C834.23 78.8887 823.892 70.5487 831.714 63.4391C839.603 56.2612 846.336 62.1403 846.336 62.1403C846.336 62.1403 845.18 55.5092 857.286 51.681C869.46 47.8528 876.805 54.2787 876.805 54.2787C876.805 54.2787 882.858 59.2691 870.14 68.6345C857.762 77.7949 857.558 80.3927 857.558 80.5294C857.558 80.5294 848.24 90.5784 862.59 99.4654L866.535 101.653C865.243 100.491 859.122 94.7485 861.706 88.7327C864.495 82.0333 867.827 81.4864 867.827 81.4864C867.827 81.4864 880.545 78.2051 876.873 87.7073C873.2 97.2778 878.437 99.6021 878.437 99.6021C878.437 99.6021 884.762 106.712 883.334 109.583C883.334 109.583 891.019 100.286 890.883 98.7818C890.747 97.2778 891.495 93.1762 889.047 90.9886C889.047 90.9886 900.677 94.5434 900.745 101.585C900.745 108.694 897.004 117.308 897.004 117.308C897.004 117.308 893.264 132.962 898.704 136.791C898.704 136.791 892.923 128.997 910.674 118.538C928.493 108.079 934.954 98.0298 934.954 98.0298C934.954 98.0298 940.599 90.2367 937.267 83.1271C937.743 82.5802 938.219 82.1017 938.763 81.8282C943.524 79.2305 956.242 68.0193 957.398 63.5758C957.398 63.5758 953.793 79.5723 955.426 85.9299C957.058 92.2875 957.806 93.9965 957.806 93.9965C957.806 93.9965 957.738 76.9062 971.544 68.2928C985.351 59.6793 988.479 50.3138 988.479 50.3138L990.111 44.1613C990.111 44.1613 989.227 51.2025 995.756 58.312C1002.29 65.4216 1004.12 68.908 1004.12 68.908C1004.12 68.908 1008.75 73.83 1003.92 84.2892C999.089 94.7485 998.749 99.3287 998.749 99.3287C998.749 99.3287 1003.17 89.2112 1005.35 87.2971C1007.52 85.383 1011.6 74.7871 1011.33 72.7362C1011.06 70.617 1014.8 46.3489 1024.12 43.6144C1033.43 40.88 1036.43 44.9133 1036.43 44.9133C1036.43 44.9133 1043.36 52.5014 1033.57 62.2086C1033.57 62.2086 1044.38 61.7301 1040.71 72.6679C1037.04 83.674 1025.95 76.6328 1025.95 76.6328C1025.95 76.6328 1017.04 67.2673 1022.08 60.9781C1022.08 60.9781 1019.63 60.3629 1018.13 70.6854C1016.57 81.0079 1015.21 82.9904 1015.21 82.9904C1015.21 82.9904 1012.08 86.135 1009.83 100.969C1009.83 100.969 1009.97 111.36 1007.66 114.573C1005.35 117.718 1001.2 124.554 1008.54 138.363C1008.54 138.363 1024.18 157.777 1020.99 168.783C1017.72 179.79 1019.36 186.147 1019.36 186.147C1019.36 186.147 1021.87 173.432 1024.53 171.108C1027.18 168.783 1029.29 156 1028.61 153.881C1027.93 151.762 1026.77 149.984 1026.77 149.984C1026.77 149.984 1035.61 147.66 1038.54 159.965C1038.54 159.965 1037.38 177.397 1042.55 185.669C1047.78 193.94 1056.69 196.606 1056.69 196.606C1056.69 196.606 1044.38 183.276 1054.31 171.039C1064.24 158.803 1067.85 148.685 1067.85 148.685C1067.85 148.685 1072.54 140.277 1065.6 120.657C1065.6 120.657 1062.95 110.882 1065.81 105.686C1068.66 100.491 1065.74 88.1858 1065.74 88.1858C1065.74 88.1858 1065.33 99.8072 1059.21 104.798C1053.09 109.788 1052.48 112.659 1052.48 112.659C1052.48 112.659 1051.32 111.77 1050.37 125.032C1049.48 138.294 1046.22 143.49 1046.22 143.49C1046.22 143.49 1044.86 146.088 1042.82 148.002C1043.7 147.045 1046.76 143.08 1045.54 135.15C1044.11 125.921 1042.41 119.974 1042.41 119.974C1042.41 119.974 1041.39 110.335 1046.7 106.096C1051.93 101.858 1053.77 99.9439 1053.77 99.9439C1053.77 99.9439 1061.18 94.6118 1060.23 83.7424C1060.23 83.7424 1054.04 70.8221 1060.84 62.5504C1067.64 54.2787 1071.59 63.3024 1071.59 63.3024C1071.59 63.3024 1071.79 54.142 1081.11 51.0658C1090.43 47.9895 1094.71 57.8335 1094.71 57.8335C1094.71 57.8335 1098.32 65.5583 1087.64 76.0859C1076.96 86.6135 1076.76 89.8949 1076.76 89.8949C1076.76 89.8949 1068.46 101.79 1077.44 116.145L1080.09 120.042C1080.09 120.042 1075.4 110.13 1078.46 101.585C1081.52 93.0395 1084.03 92.8344 1084.03 92.8344C1084.03 92.8344 1093.69 90.5785 1089.54 102.815C1085.39 115.052 1088.86 119.017 1088.86 119.017C1088.86 119.017 1092.26 129.681 1090.77 133.304C1090.77 133.304 1097.77 122.161 1097.91 120.042C1098.04 117.991 1099.27 112.659 1097.84 109.241C1097.84 109.241 1105.66 116.009 1104.57 125.511C1103.49 135.013 1099.47 145.951 1099.47 145.951C1099.47 145.951 1094.37 166.391 1097.64 172.475C1097.64 172.475 1094.71 161.059 1109.13 149.984C1123.55 138.91 1129.81 126.4 1129.81 126.4C1129.81 126.4 1135.45 116.351 1133.68 105.823C1133.68 105.823 1127.56 116.624 1122.73 108.011C1117.97 99.3287 1123.96 84.3576 1123.96 84.3576C1123.96 84.3576 1109.81 77.3164 1108.45 67.0623C1108.93 66.7888 1110.35 65.9685 1110.56 63.8493C1110.7 62.4137 1110.63 60.4312 1110.42 58.6539C1111.38 57.0816 1112.6 55.4409 1114.44 53.7319C1114.44 53.7319 1116.82 52.433 1119.94 52.1596C1120.01 54.7573 1119.6 57.6284 1118.04 60.0894C1115.18 64.4645 1117.09 72.9413 1117.09 72.9413C1117.09 72.9413 1117.97 64.6696 1120.83 62.9606C1122.67 61.8668 1126.34 58.4488 1128.92 55.3725C1129.67 56.1245 1130.35 57.0132 1130.96 58.0386C1130.83 60.568 1130.83 63.2341 1131.3 64.8747C1132.53 68.7713 1133.07 69.7967 1133.07 69.7967C1133.07 69.7967 1133 67.6092 1133.61 64.738C1134.5 68.2244 1135.11 72.5312 1135.18 78.0684C1135.18 78.0684 1131.51 89.8949 1134.09 100.081C1134.09 100.081 1133.89 90.9203 1140.08 85.1096C1146.26 79.2989 1148.58 63.6442 1148.58 63.6442C1148.58 63.6442 1148.65 56.1929 1147.35 47.3059C1149.94 44.093 1150.55 41.7003 1150.55 41.7003L1151.37 37.8721C1151.37 37.8721 1151.03 42.2472 1155.38 46.4172C1159.66 50.5873 1160.96 52.6381 1160.96 52.6381C1160.96 52.6381 1164.02 55.5093 1161.36 62.2086C1158.71 68.908 1158.71 71.7108 1158.71 71.7108C1158.71 71.7108 1161.09 65.2849 1162.38 63.986C1163.68 62.6872 1165.78 56.0561 1165.58 54.7573C1165.38 53.4584 1166.8 38.2823 1172.45 36.2998C1178.09 34.3173 1180.13 36.6416 1180.13 36.6416C1180.13 36.6416 1184.69 41.0851 1178.98 47.4427C1178.98 47.4427 1185.64 46.7591 1183.81 53.6635C1181.9 60.6363 1174.76 56.6714 1174.76 56.6714C1174.76 56.6714 1168.91 51.2025 1171.77 47.1009C1171.77 47.1009 1170.2 46.8274 1169.66 53.2533C1169.12 59.6793 1168.3 60.9781 1168.3 60.9781C1168.3 60.9781 1166.46 63.029 1165.58 72.3261C1165.58 72.3261 1165.99 78.752 1164.7 80.8028C1163.4 82.8537 1161.02 87.2288 1166.06 95.5005C1166.06 95.5005 1176.46 106.985 1174.83 113.89C1173.2 120.862 1174.42 124.691 1174.42 124.691C1174.42 124.691 1175.51 116.692 1177.07 115.188C1178.64 113.685 1179.52 105.686 1178.98 104.387C1178.43 103.089 1177.75 102.063 1177.75 102.063C1177.75 102.063 1183.19 100.354 1185.37 107.805C1185.37 107.805 1185.24 118.607 1188.77 123.597C1192.31 128.519 1197.95 129.886 1197.95 129.886C1197.95 129.886 1189.86 122.025 1195.57 114.163C1201.29 106.302 1203.19 99.8072 1203.19 99.8072C1203.19 99.8072 1205.84 94.4067 1200.81 82.5119C1200.81 82.5119 1198.84 76.5645 1200.4 73.2148C1201.97 69.8651 1199.79 62.3454 1199.79 62.3454C1199.79 62.3454 1199.99 69.5916 1196.32 72.873C1192.72 76.1543 1192.44 78 1192.44 78C1192.44 78 1191.7 77.4532 1191.56 85.7248C1191.49 93.9965 1189.66 97.2779 1189.66 97.2779C1189.66 97.2779 1188.84 99.0552 1187.55 100.354C1187.55 100.354 1190.13 97.8247 1188.91 92.1508C1187.68 86.4768 1186.46 82.8537 1186.46 82.8537C1186.46 82.8537 1185.51 76.9063 1188.64 74.1035C1191.76 71.3007 1192.78 70.0018 1192.78 70.0018C1192.78 70.0018 1197.21 66.447 1196.25 59.7476C1196.25 59.7476 1191.97 51.9545 1195.91 46.6223C1199.79 41.2218 1202.58 46.6907 1202.58 46.6907C1202.58 46.6907 1202.37 41.0167 1208.09 38.7608C1213.73 36.5049 1216.79 42.4523 1216.79 42.4523C1216.79 42.4523 1219.31 47.1009 1213.05 54.0053C1206.79 60.9098 1206.79 62.9606 1206.79 62.9606C1206.79 62.9606 1202.1 70.6171 1208.15 79.2305L1209.92 81.5548C1209.92 81.5548 1206.66 75.6074 1208.29 70.2069C1209.92 64.8064 1211.42 64.6013 1211.42 64.6013C1211.42 64.6013 1217.34 62.8923 1215.23 70.5487C1213.12 78.2735 1215.36 80.5978 1215.36 80.5978C1215.36 80.5978 1217.88 87.0921 1217.06 89.4163C1217.06 89.4163 1221.01 82.2384 1221.01 80.9396C1221.01 79.6407 1221.55 76.291 1220.6 74.2402C1220.6 74.2402 1225.7 78.1368 1225.36 84.0842C1225.02 90.0316 1222.91 96.9361 1222.91 96.9361C1222.91 96.9361 1220.46 109.788 1222.71 113.411C1222.71 113.411 1220.46 106.438 1229.03 99.0553C1237.6 91.6723 1241 83.7424 1241 83.7424C1241 83.7424 1244.13 77.3164 1242.7 70.8905C1242.7 70.8905 1239.3 77.795 1236.04 72.5995C1233.66 68.7713 1234.68 62.6872 1235.43 59.6793C1237.88 59.5426 1240.19 59.8844 1241.89 61.1832C1241.89 63.1657 1242.16 65.2849 1242.77 67.2674C1242.77 67.2674 1242.64 65.1482 1243.32 62.6872C1243.45 62.9606 1243.66 63.1657 1243.79 63.4391C1245.9 67.951 1247.26 77.3848 1242.84 84.4943C1238.42 91.5355 1241.89 105.139 1241.89 105.139C1241.89 105.139 1242.98 91.9457 1247.4 89.0062C1251.89 86.0667 1263.58 73.9668 1264.4 69.4549C1264.4 69.4549 1262.16 85.5198 1264.26 91.6723C1266.37 97.8248 1267.26 99.4654 1267.26 99.4654C1267.26 99.4654 1265.83 82.5802 1278.82 72.9413C1291.81 63.3024 1294.19 53.8002 1294.19 53.8002L1295.35 47.5794C1295.35 47.5794 1295.01 54.6206 1302.08 61.1149C1309.15 67.6092 1311.19 70.8905 1311.19 70.8905C1311.19 70.8905 1316.16 75.334 1312.21 86.135C1308.27 96.8677 1308.34 101.448 1308.34 101.448C1308.34 101.448 1311.87 91.1254 1313.91 89.0062C1315.95 86.887 1319.08 76.1543 1318.67 74.1035C1318.26 72.0526 1319.97 47.7161 1328.94 44.2981C1337.92 40.88 1341.25 44.5715 1341.25 44.5715C1341.25 44.5715 1348.73 51.476 1339.82 61.8668C1339.82 61.8668 1350.43 60.4996 1347.71 71.6425C1344.99 82.7853 1333.43 76.7696 1333.43 76.7696C1333.43 76.7696 1323.91 68.2244 1328.33 61.5934C1328.33 61.5934 1325.88 61.1832 1325.2 71.5058C1324.52 81.8283 1323.3 83.8791 1323.3 83.8791C1323.3 83.8791 1320.44 87.2288 1319.42 102.063C1319.42 102.063 1320.37 112.317 1318.33 115.667C1316.29 119.017 1312.76 126.058 1321.05 139.115C1321.05 139.115 1324.79 134.466 1322.48 145.609C1320.17 156.752 1322.28 162.904 1322.28 162.904C1322.28 162.904 1323.77 150.121 1326.15 147.592C1328.6 145.062 1328.19 141.576 1331.6 145.404C1332.28 146.156 1334.04 141.918 1335.74 136.996C1337.78 131.185 1345.27 129.681 1349.35 134.193C1358.12 143.763 1370.43 157.231 1374.03 162.084C1379.88 169.809 1388.93 171.791 1388.93 171.791C1388.93 171.791 1375.67 159.623 1384.51 146.703C1393.35 133.851 1396.14 123.46 1396.14 123.46C1396.14 123.46 1384.51 135.765 1376.07 116.897C1376.07 116.897 1372.67 107.464 1375.05 102.063C1377.43 96.6626 1373.63 84.7678 1373.63 84.7678C1373.63 84.7678 1374.17 96.3208 1368.53 101.721C1362.88 107.122 1362.47 110.061 1362.47 110.061C1362.47 110.061 1361.25 109.241 1361.38 122.435C1361.52 135.628 1359.55 141.849 1357.44 132.757C1355.26 123.734 1353.15 117.991 1353.15 117.991C1353.15 117.991 1351.39 108.557 1356.28 103.977C1361.11 99.3971 1362.74 97.2779 1362.74 97.2779C1362.74 97.2779 1369.61 91.3988 1367.85 80.7345C1367.85 80.7345 1360.7 68.4979 1366.76 59.7477C1372.81 50.9974 1377.43 59.6109 1377.43 59.6109C1377.43 59.6109 1376.89 50.5873 1385.87 46.7591C1394.85 42.9308 1399.88 52.3647 1399.88 52.3647C1399.88 52.3647 1404.09 59.7477 1394.37 70.9589C1384.64 82.1701 1384.71 85.5198 1384.71 85.5198C1384.71 85.5198 1377.5 97.9615 1387.5 111.429L1390.42 115.12C1390.42 115.12 1384.98 105.686 1387.3 97.0044C1389.61 88.3226 1392.13 87.9124 1392.13 87.9124C1392.13 87.9124 1401.51 84.9045 1398.38 97.2779C1395.25 109.651 1398.99 113.343 1398.99 113.343C1398.99 113.343 1403.21 123.597 1402.05 127.288C1402.05 127.288 1408.04 115.667 1408.04 113.616C1408.04 111.565 1408.79 106.165 1407.09 102.883C1407.09 102.883 1415.38 108.968 1415.04 118.47C1414.77 127.972 1411.64 139.115 1411.64 139.115C1411.64 139.115 1408.24 159.76 1411.98 165.502C1411.98 165.502 1408.18 154.428 1421.51 142.328C1434.9 130.228 1440.07 117.376 1440.07 117.376C1440.07 117.376 1444.83 106.985 1442.25 96.731C1442.25 96.731 1437.08 107.942 1431.64 99.7389C1426.2 91.5356 1430.96 76.291 1430.96 76.291C1430.96 76.291 1402.53 65.0798 1419.13 46.7591C1419.13 46.7591 1432.05 38.2823 1438.44 54.7573L1436.81 64.6697C1436.81 64.6697 1436.94 69.3866 1440.75 74.7187C1440.34 79.0938 1440.28 85.3831 1442.25 90.9887C1442.25 90.9887 1441.64 84.6994 1444.7 79.0255C1445.11 79.3673 1445.45 79.7775 1445.85 80.1192C1454.7 87.2288 1457.42 90.9203 1457.42 90.9203C1457.42 90.9203 1463.67 95.7739 1459.8 108.831C1455.92 121.888 1456.4 127.22 1456.4 127.22C1456.4 127.22 1459.8 114.71 1462.04 112.044C1464.28 109.446 1467.14 96.4576 1466.46 94.0649C1465.78 91.6723 1465.92 62.7556 1476.25 58.0386C1486.59 53.3217 1490.81 57.355 1490.81 57.355C1490.81 57.355 1500.19 64.9431 1490.47 77.9317C1490.47 77.9317 1502.92 75.4707 1500.6 88.8695C1498.29 102.268 1484.14 96.0474 1484.14 96.0474C1484.14 96.0474 1472.17 86.7503 1476.87 78.4786C1476.87 78.4786 1473.94 78.2051 1473.94 90.4418C1473.94 102.678 1472.72 105.208 1472.72 105.208C1472.72 105.208 1469.66 109.378 1469.59 127.015C1469.59 127.015 1471.49 139.115 1469.39 143.217C1467.28 147.318 1463.6 155.932 1474.49 170.698C1474.49 170.698 1496.05 190.522 1494.21 203.853C1492.37 217.183 1495.37 224.361 1495.37 224.361C1495.37 224.361 1496.11 209.117 1498.77 205.972C1501.42 202.827 1501.69 187.651 1500.53 185.259C1499.38 182.934 1497.75 181.089 1497.75 181.089C1497.75 181.089 1507.61 176.782 1513.05 190.522C1513.05 190.522 1514.68 210.962 1522.16 219.644C1529.64 228.326 1540.53 229.898 1540.53 229.898C1540.53 229.898 1523.86 216.568 1533.32 200.64C1542.77 184.712 1545.15 172.27 1545.15 172.27C1545.15 172.27 1549.16 161.674 1537.74 140.072C1537.74 140.072 1532.98 129.202 1535.36 122.64C1537.74 116.077 1532.3 102.337 1532.3 102.337C1532.3 102.337 1533.86 115.94 1527.6 122.777C1521.35 129.681 1521.14 133.099 1521.14 133.099C1521.14 133.099 1519.65 132.21 1520.87 147.797C1522.09 163.383 1519.24 169.946 1519.24 169.946C1519.24 169.946 1518.15 173.159 1516.11 175.756C1516.99 174.457 1519.85 169.33 1517.06 160.375C1513.8 149.848 1510.8 143.217 1510.8 143.217C1510.8 143.217 1507.95 132.21 1513.39 126.331C1518.76 120.521 1520.53 117.923 1520.53 117.923C1520.53 117.923 1528.22 110.472 1525.29 97.9615C1525.29 97.9615 1515.91 84.0158 1522.37 73.2148C1528.83 62.4138 1534.95 72.1894 1534.95 72.1894C1534.95 72.1894 1533.59 61.5251 1543.93 56.2613C1554.2 50.9975 1560.93 61.7301 1560.93 61.7301C1560.93 61.7301 1566.44 70.0702 1555.9 84.1526C1545.35 98.2349 1545.63 102.132 1545.63 102.132C1545.63 102.132 1538.08 117.444 1551 132.552L1554.74 136.654C1554.74 136.654 1547.53 125.99 1549.64 115.53C1551.75 105.071 1554.6 104.387 1554.6 104.387C1554.6 104.387 1565.49 100.081 1562.76 114.983C1560.04 129.886 1564.74 133.919 1564.74 133.919C1564.74 133.919 1570.52 145.678 1569.43 150.189C1569.43 150.189 1575.62 135.97 1575.41 133.578C1575.21 131.117 1575.69 124.759 1573.44 120.999C1573.44 120.999 1583.71 127.493 1584.12 138.773C1584.53 149.984 1581.67 163.451 1581.67 163.451C1581.67 163.451 1579.22 188.13 1584.19 194.624C1584.19 194.624 1578.82 181.84 1593.64 166.459C1608.47 151.078 1613.57 135.492 1613.57 135.492C1613.57 135.492 1618.4 122.845 1614.52 110.95C1614.52 110.95 1609.28 124.622 1602.21 115.394C1595.14 106.165 1599.49 87.7074 1599.49 87.7074C1599.49 87.7074 1565.01 76.7696 1583.17 53.8003C1583.17 53.8003 1604.73 37.3936 1611.46 78.4786C1611.46 78.4786 1609.22 92.8344 1613.98 104.251C1613.98 104.251 1612.14 93.6548 1618.33 85.7932C1624.52 77.9317 1624.52 59.3375 1624.52 59.3375C1624.52 59.3375 1624.79 52.1596 1621.59 44.2297L1639.28 38.2823C1647.44 35.2744 1650.43 38.6925 1650.43 38.6925C1650.43 38.6925 1657.16 45.0501 1648.93 54.4155C1648.93 54.4155 1658.66 53.3217 1656.08 63.4392C1653.42 73.5566 1643.02 67.8826 1643.02 67.8826C1643.02 67.8826 1634.45 60.0211 1638.53 54.0737C1638.53 54.0737 1636.28 53.6635 1635.54 63.029C1634.79 72.3945 1633.7 74.3086 1633.7 74.3086C1633.7 74.3086 1631.05 77.3165 1629.96 90.7836C1629.96 90.7836 1630.71 100.149 1628.8 103.157C1626.97 106.165 1623.63 112.522 1631.05 124.554C1631.05 124.554 1646.35 141.029 1644.11 151.146C1641.86 161.264 1643.77 166.938 1643.77 166.938C1643.77 166.938 1645.26 155.316 1647.51 153.061C1649.75 150.805 1650.84 139.183 1650.09 137.269C1649.34 135.423 1648.25 133.919 1648.25 133.919C1648.25 133.919 1656.08 131.322 1659.41 142.191C1659.41 142.191 1659.41 157.914 1664.65 165.024C1669.88 172.202 1678.11 174.047 1678.11 174.047C1678.11 174.047 1666.14 162.768 1674.37 151.146C1682.53 139.525 1685.18 130.16 1685.18 130.16C1685.18 130.16 1688.93 122.298 1681.44 105.071C1681.44 105.071 1678.45 96.3892 1680.7 91.5356C1682.94 86.6819 1679.54 75.8125 1679.54 75.8125C1679.54 75.8125 1679.95 86.2718 1674.71 91.1938C1669.47 96.0474 1669.13 98.6451 1669.13 98.6451C1669.13 98.6451 1667.98 97.8931 1667.98 109.925C1667.98 121.888 1665.39 126.81 1665.39 126.81C1665.39 126.81 1664.51 128.929 1662.81 130.775C1663.76 129.476 1665.73 125.784 1664.24 119.29C1662.4 111.018 1660.56 105.823 1660.56 105.823C1660.56 105.823 1659.07 97.1412 1663.49 93.0395C1667.98 88.9378 1669.47 87.0237 1669.47 87.0237C1669.47 87.0237 1675.87 81.7599 1674.37 72.0527C1674.37 72.0527 1667.98 60.7731 1673.62 52.9116C1679.2 45.0501 1683.28 52.9116 1683.28 52.9116C1683.28 52.9116 1682.94 44.6399 1691.1 41.2902C1699.33 37.9405 1703.82 46.554 1703.82 46.554C1703.82 46.554 1707.56 53.2534 1698.58 63.4392C1689.61 73.5566 1689.61 76.5645 1689.61 76.5645C1689.61 76.5645 1682.94 87.7757 1691.85 100.149L1694.5 103.567C1694.5 103.567 1689.67 94.8853 1691.85 87.0238C1694.09 79.1622 1696.34 78.8204 1696.34 78.8204C1696.34 78.8204 1704.91 76.1543 1701.98 87.4339C1698.99 98.6451 1702.32 102.063 1702.32 102.063C1702.32 102.063 1706.06 111.429 1704.91 114.778C1704.91 114.778 1710.55 104.319 1710.55 102.405C1710.55 100.559 1711.3 95.7056 1709.87 92.6977C1710.69 93.313 1717.22 98.8502 1716.88 106.917C1716.54 115.53 1713.55 125.648 1713.55 125.648C1713.55 125.648 1710.21 143.968 1713.48 149.437C1713.07 147.865 1711.23 138.568 1722.45 128.656C1734.76 117.786 1739.66 106.165 1739.66 106.165C1739.66 106.165 1744.08 96.7994 1741.91 87.4339C1741.91 87.4339 1737.35 96.8677 1732.72 90.7836C1732.52 90.5785 1732.38 90.3051 1732.18 90.0316C1729.12 85.2464 1729.8 77.795 1730.75 73.0781C1730.55 71.3691 1730.55 69.7284 1730.82 68.2245C1731.09 65.4217 1732.18 63.2341 1734.49 62.6872C1736.81 62.1403 1739.25 61.9353 1741.5 62.072C1744.35 62.2087 1746.94 63.029 1748.64 64.8064C1749.32 65.49 1749.86 66.3104 1750.2 67.3358C1752.24 72.9414 1752.79 84.2209 1746.8 92.0825C1740.82 99.8756 1743.4 116.282 1743.4 116.282C1743.4 116.282 1746.12 100.833 1751.7 97.8248C1757.21 94.9536 1772.1 82.1701 1773.8 76.838C1773.33 78.8204 1769.59 95.8423 1771.29 102.815C1773.12 110.335 1773.94 112.386 1773.94 112.386C1773.94 112.386 1774.08 92.2876 1790.47 82.3752C1796.25 78.8888 1798.76 75.1973 1799.58 71.9843C1806.52 79.7775 1808.42 83.469 1808.42 83.469C1808.42 83.469 1813.79 89.2797 1807.94 101.585C1802.1 113.821 1801.69 119.153 1801.69 119.153C1801.69 119.153 1806.99 107.395 1809.65 105.139C1812.23 102.884 1817.13 90.5785 1816.85 88.1175C1816.51 85.5882 1821.28 57.0816 1832.22 54.0737C1843.17 51.0658 1846.71 55.7144 1846.71 55.7144C1846.71 55.7144 1854.74 64.6697 1843.11 76.0176C1843.11 76.0176 1855.82 75.5391 1851.4 88.391C1846.98 101.311 1833.99 92.9028 1833.99 92.9028C1833.99 92.9028 1823.66 81.76 1829.64 74.4453C1829.64 74.4453 1826.72 73.6933 1824.81 85.7932C1822.84 97.8932 1821.21 100.217 1821.21 100.217C1821.21 100.217 1817.53 103.841 1814.68 121.204C1814.68 121.204 1814.68 133.441 1811.96 137.132C1809.24 140.824 1804.2 148.754 1812.64 165.092C1812.64 165.092 1830.8 188.13 1826.85 201.05C1822.84 213.902 1824.68 221.422 1824.68 221.422C1824.68 221.422 1827.87 206.519 1831 203.784C1834.13 201.118 1836.78 186.147 1836.03 183.618C1835.22 181.157 1833.93 179.106 1833.93 179.106C1833.93 179.106 1844.4 176.508 1847.6 190.933C1847.6 190.933 1845.96 211.372 1852.02 221.148C1857.59 230.308 1867.25 233.727 1868.27 234C1867.11 232.701 1854.6 217.593 1865.89 203.989C1877.72 189.77 1882.08 177.876 1882.08 177.876C1882.08 177.876 1887.79 168.032 1879.83 144.857C1879.83 144.857 1876.91 133.373 1880.31 127.288C1883.71 121.204 1880.44 106.712 1880.44 106.712C1880.44 106.712 1879.9 120.384 1872.56 126.195C1865.28 131.937 1864.53 135.287 1864.53 135.287C1864.53 135.287 1863.17 134.261 1861.95 149.779C1860.72 165.366 1856.78 171.45 1856.78 171.45C1856.78 171.45 1855.35 174.252 1853.1 176.303C1854.4 174.663 1857.32 170.082 1856.1 161.606C1854.53 150.668 1852.7 143.695 1852.7 143.695C1852.7 143.695 1851.61 132.347 1857.87 127.425C1864.12 122.571 1866.23 120.247 1866.23 120.247C1866.23 120.247 1875 114.095 1874.05 101.311C1874.05 101.311 1867.05 86.0667 1875.07 76.4278C1883.17 66.7889 1887.65 77.4532 1887.65 77.4532C1887.65 77.4532 1888.06 66.7205 1899.08 63.1658C1910.03 59.6793 1914.99 71.3007 1914.99 71.3007C1914.99 71.3007 1919.08 80.4611 1906.43 92.6977C1893.77 104.866 1893.43 108.763 1893.43 108.763C1893.43 108.763 1883.57 122.64 1893.91 139.662L1896.84 144.037C1896.02 142.123 1891.87 131.664 1895.27 122.64C1899.01 112.659 1901.94 112.386 1901.94 112.386C1901.94 112.386 1913.36 109.856 1908.33 124.144C1903.3 138.431 1907.31 143.148 1907.31 143.148C1907.31 143.148 1911.12 155.522 1909.42 159.828C1910.37 158.393 1917.71 146.84 1917.92 144.515C1918.05 142.054 1919.55 135.834 1917.92 131.8C1917.92 131.8 1927.03 139.867 1925.67 151.01C1924.38 161.469 1919.96 173.432 1919.42 174.868C1921.25 173.09 1952.6 140.687 1947.23 130.706C1941.72 120.452 1949 102.952 1949 102.952C1949 102.952 1911.93 46.9642 1933.49 27.1395L1929 27.1395L1935.74 0.000166692L-9.37998 -3.35529e-06L-16.1811 27.3444L-7.88377 27.3444C-6.72764 33.3602 -7.40758 41.837 -19.2416 45.1183C-38.3526 50.4504 -33.4558 65.6949 -33.4558 65.6949ZM902.853 47.9895C902.853 47.9895 910.674 44.5031 918.7 45.6653C911.49 50.9974 913.803 59.2691 913.803 59.2691C913.803 59.2691 915.503 63.234 917.067 68.0193C908.022 66.3103 884.966 60.568 902.853 47.9895ZM919.856 82.7853C918.292 79.9141 918.292 76.6328 918.836 73.8984C919.72 77.3164 920.264 80.6661 919.856 82.7853ZM934.546 76.9063C932.574 79.504 931.758 83.1955 931.486 86.7502C929.037 87.844 925.909 88.1858 922.576 85.8615C922.032 85.5197 921.692 85.0412 921.284 84.631C921.624 84.0158 921.964 83.2638 922.1 82.3068C922.78 78.2051 922.44 71.0956 921.828 68.156C921.216 65.2165 918.292 53.3217 923.733 52.0228C925.637 51.5443 927.609 51.3392 929.514 51.4076C931.69 53.9369 933.458 57.355 934.614 62.0035C934.614 62.0035 932.166 69.1814 935.226 75.6757C935.022 76.1543 934.818 76.5644 934.546 76.9063ZM1109.2 64.738L1108.59 66.5154C1108.45 64.9431 1108.59 63.3024 1109.2 61.6617C1109.4 62.8922 1109.47 63.986 1109.2 64.738ZM1232.23 50.5873C1230.73 51.0658 1229.44 51.6127 1228.29 52.2279C1225.36 49.015 1223.87 44.4348 1229.03 39.0343C1229.03 39.0343 1236.45 34.4541 1240.46 42.9308C1239.3 46.2122 1236.92 49.0833 1232.23 50.5873Z" fill="#1C1C1C"/>
<path d="M740.035 83.4005C736.906 84.3576 733.982 89.4163 733.982 89.4163C733.982 89.4163 729.969 94.4067 730.581 102.678C731.193 110.95 724.936 116.351 722.012 120.589C719.087 124.827 716.639 129.749 716.027 135.765C715.415 141.781 721.263 149.916 721.263 149.916C721.263 149.916 717.387 143.968 721.74 137.884C726.092 131.8 727.18 131.732 727.18 131.732C724.596 134.398 724.8 142.67 724.8 142.67C724.664 153.197 731.941 158.666 731.941 158.666C728.473 154.223 730.785 142.123 730.785 142.123C730.785 142.123 731.737 135.697 736.77 126.536C741.803 117.376 739.422 106.507 739.422 106.507C739.422 106.507 738.402 100.217 737.45 91.9456C736.702 85.5881 738.946 83.879 740.035 83.4005Z" fill="#000000"/>
<path d="M495.467 92.6293C492.678 98.0298 491.726 98.1665 491.726 98.1665C493.494 95.7055 492.406 89.1428 492.406 89.1428C491.386 80.6661 484.993 77.1113 484.993 77.1113C488.258 80.2559 487.713 90.2366 487.713 90.2366C487.713 90.2366 487.645 95.5004 484.585 103.362C481.524 111.223 484.653 119.7 484.653 119.7C484.653 119.7 486.149 124.622 487.849 131.117C489.142 136.107 487.509 137.748 486.693 138.226C489.142 137.132 490.842 132.757 490.842 132.757C490.842 132.757 493.494 128.314 492.134 121.751C490.774 115.188 495.195 110.198 497.031 106.507C498.867 102.815 500.363 98.5767 500.159 93.6547C499.955 88.7327 494.447 82.8536 494.447 82.8536C494.447 82.8536 498.323 87.2971 495.467 92.6293Z" fill="#000000"/>
<path d="M1780.6 137.884C1777.07 144.515 1775.98 144.652 1775.98 144.652C1778.16 141.644 1776.93 133.509 1776.93 133.509C1775.71 123.05 1767.82 118.538 1767.82 118.538C1771.83 122.503 1771.08 134.808 1771.08 134.808C1770.67 151.967 1770.61 142.123 1767.14 151.01C1763.33 160.717 1767.07 171.245 1767.07 171.245C1767.07 171.245 1768.91 177.397 1770.88 185.464C1772.44 191.685 1770.4 193.667 1769.38 194.282C1772.38 192.915 1774.62 187.583 1774.62 187.583C1774.62 187.583 1777.95 182.114 1776.32 173.979C1774.69 165.844 1780.2 159.692 1782.51 155.111C1784.82 150.6 1786.73 145.336 1786.52 139.252C1786.39 133.167 1779.58 125.853 1779.58 125.853C1779.58 125.853 1784.14 131.253 1780.6 137.884Z" fill="#000000"/>
</g>
<defs>
<clipPath id="clip0_38_70">
<rect width="1920" height="234" fill="#000000" transform="translate(1920 234) rotate(-180)"/>
</clipPath>
</defs>
</svg>
