<svg width="40" height="40" viewBox="0 0 40 40" fill="none" xmlns="http://www.w3.org/2000/svg">
<path d="M21.7484 11.293C23.9731 10.0145 25.7907 10.0102 26.9945 10.7051C28.1979 11.3998 29.1019 12.9755 29.1019 15.5498V24.4502C29.1019 27.0245 28.1979 28.6003 26.9945 29.2949C25.8658 29.9464 24.1981 29.9818 22.1605 28.9297L21.7474 28.7051L19.6166 27.4727C19.3779 27.3336 19.2318 27.0801 19.2318 26.7998V13.2002C19.2318 12.9199 19.378 12.6664 19.6166 12.5273L21.7494 11.2939L21.7484 11.293Z" fill="#1C1C1C" stroke="#1C1C1C" stroke-width="1.79598"/>
<path d="M15.7683 25.2484L14.0349 24.2406L14.031 24.2377L13.6296 23.9955C11.697 22.7646 10.8944 21.3031 10.8943 20.0004C10.8943 18.6108 11.8075 17.0404 14.031 15.7621L14.0349 15.7592L15.7683 14.7504V25.2484Z" fill="#1C1C1C" stroke="#1C1C1C" stroke-width="1.79598"/>
</svg>
