<svg width="40" height="40" viewBox="0 0 40 40" fill="none" xmlns="http://www.w3.org/2000/svg">
<path d="M13.0049 10.7051C14.2089 10.01 16.0267 10.0157 18.252 11.2949V11.2939L20.3838 12.5273C20.6223 12.6665 20.7686 12.92 20.7686 13.2002V26.7998C20.7686 27.08 20.6223 27.3336 20.3838 27.4727L18.252 28.7051C16.0267 29.9842 14.2089 29.99 13.0049 29.2949C11.8017 28.6001 10.8985 27.0242 10.8984 24.4502V15.5498C10.8985 12.9757 11.8017 11.3999 13.0049 10.7051Z" fill="#1C1C1C" stroke="#1C1C1C" stroke-width="1.79598"/>
<path d="M25.9652 15.7592L25.9691 15.7621C28.1926 17.0404 29.1058 18.6109 29.1058 20.0004C29.1056 21.3898 28.1923 22.9594 25.9691 24.2377L25.9652 24.2406L24.2318 25.2484V14.7504L25.9652 15.7592Z" fill="#1C1C1C" stroke="#1C1C1C" stroke-width="1.79598"/>
</svg>
