<svg width="24" height="24" viewBox="0 0 24 24" fill="none" xmlns="http://www.w3.org/2000/svg">
<path d="M2.54261 2.36224H7.84584L9.55492 6.63553L6.80881 8.46626C6.6471 8.57415 6.51452 8.7203 6.42283 8.89172C6.33114 9.06314 6.28319 9.25455 6.28322 9.44895C6.28676 9.55998 6.28322 9.45013 6.28322 9.45013V9.47494C6.28383 9.52776 6.28619 9.58054 6.2903 9.63321C6.29739 9.73006 6.3092 9.86116 6.33164 10.023C6.3777 10.3419 6.46629 10.7813 6.63873 11.2986C6.98598 12.338 7.66631 13.6833 8.99152 15.0085C10.3167 16.3337 11.662 17.014 12.7002 17.3613C13.2187 17.5337 13.6569 17.6211 13.9782 17.6684C14.1595 17.6937 14.3421 17.7094 14.5251 17.7156L14.5404 17.7168H14.5499C14.5499 17.7168 14.6822 17.7097 14.551 17.7168C14.7703 17.7167 14.9853 17.6555 15.1718 17.5401C15.3583 17.4248 15.5089 17.2598 15.607 17.0636L16.3983 15.4809L21.6378 16.355V21.4574C19.1444 21.8176 12.4097 22.1731 7.11827 16.8817C1.82685 11.5903 2.18119 4.8544 2.54261 2.36224ZM8.73168 10.023L10.866 8.60091C11.3168 8.30016 11.6506 7.85352 11.8112 7.33589C11.9719 6.81826 11.9496 6.26113 11.7483 5.75796L10.0392 1.48467C9.86379 1.04636 9.5611 0.670657 9.17015 0.406024C8.7792 0.141391 8.31793 -3.16462e-05 7.84584 5.31175e-09H2.48119C1.40756 5.31175e-09 0.3977 0.745286 0.221713 1.90987C-0.179868 4.55794 -0.724363 12.3793 5.44816 18.5518C11.6207 24.7244 19.4421 24.1787 22.0901 23.7783C23.2547 23.6011 24 22.5924 24 21.5188V16.355C24.0001 15.7958 23.8018 15.2547 23.4404 14.828C23.079 14.4013 22.5779 14.1166 22.0264 14.0246L16.7869 13.1518C16.2886 13.0686 15.7767 13.1474 15.3265 13.3765C14.8762 13.6057 14.5113 13.9732 14.2853 14.425L13.8766 15.2435C13.7321 15.2079 13.5891 15.1666 13.4479 15.1195C12.7156 14.8762 11.6986 14.3754 10.6616 13.3384C9.6246 12.3014 9.12381 11.2844 8.8805 10.5509C8.82241 10.3776 8.77313 10.2013 8.73286 10.023H8.73168Z" fill="#BCBCBC"/>
</svg>
