<svg width="24" height="24" viewBox="0 0 24 24" fill="none" xmlns="http://www.w3.org/2000/svg">
<path d="M2.58357 2.40016L4.81194 15.7752C4.85263 16.0553 4.99174 16.3119 5.20434 16.4988C5.42861 16.6977 5.71939 16.8052 6.01913 16.8H19.1998C19.4517 16.8 19.6973 16.7208 19.9017 16.5735C20.1061 16.4262 20.2589 16.2182 20.3386 15.9792L23.9385 5.17932C23.9986 4.99893 24.015 4.80683 23.9862 4.61887C23.9575 4.43092 23.8845 4.25247 23.7733 4.09825C23.6621 3.94403 23.5158 3.81844 23.3466 3.73184C23.1773 3.64523 22.9899 3.6001 22.7997 3.60014H5.21634L4.78794 1.02017C4.74396 0.725399 4.59111 0.457807 4.35955 0.270182C4.14008 0.0908675 3.86412 -0.00480166 3.58076 0.000185587H1.19999C0.88173 0.000185587 0.576509 0.126612 0.351468 0.351653C0.126427 0.576694 0 0.881915 0 1.20017C0 1.51843 0.126427 1.82365 0.351468 2.04869C0.576509 2.27373 0.88173 2.40016 1.19999 2.40016H2.58357ZM7.01632 14.4L5.61593 6.00011H21.1353L18.3346 14.4H7.01632ZM9.59988 21.5999C9.59988 22.2364 9.34703 22.8469 8.89695 23.297C8.44687 23.747 7.83643 23.9999 7.19991 23.9999C6.5634 23.9999 5.95296 23.747 5.50288 23.297C5.0528 22.8469 4.79994 22.2364 4.79994 21.5999C4.79994 20.9634 5.0528 20.353 5.50288 19.9029C5.95296 19.4528 6.5634 19.2 7.19991 19.2C7.83643 19.2 8.44687 19.4528 8.89695 19.9029C9.34703 20.353 9.59988 20.9634 9.59988 21.5999ZM20.3998 21.5999C20.3998 22.2364 20.1469 22.8469 19.6968 23.297C19.2467 23.747 18.6363 23.9999 17.9998 23.9999C17.3633 23.9999 16.7528 23.747 16.3027 23.297C15.8527 22.8469 15.5998 22.2364 15.5998 21.5999C15.5998 20.9634 15.8527 20.353 16.3027 19.9029C16.7528 19.4528 17.3633 19.2 17.9998 19.2C18.6363 19.2 19.2467 19.4528 19.6968 19.9029C20.1469 20.353 20.3998 20.9634 20.3998 21.5999Z" fill="black"/>
</svg>
