<svg width="26" height="26" viewBox="0 0 26 26" fill="none" xmlns="http://www.w3.org/2000/svg">
<path d="M2.79887 2.60018L5.21294 17.0899C5.25702 17.3934 5.40772 17.6713 5.63803 17.8738C5.88099 18.0893 6.196 18.2057 6.52072 18.2001H20.7997C21.0727 18.2001 21.3387 18.1143 21.5602 17.9547C21.7816 17.7951 21.9472 17.5698 22.0334 17.3109L25.9334 5.61096C25.9985 5.41553 26.0162 5.20743 25.9851 5.0038C25.954 4.80018 25.8749 4.60687 25.7544 4.43979C25.634 4.27271 25.4755 4.13666 25.2921 4.04284C25.1087 3.94902 24.9057 3.90012 24.6997 3.90017H5.65103L5.18694 1.10519C5.13929 0.785852 4.97371 0.49596 4.72284 0.292699C4.48508 0.0984402 4.18613 -0.00520182 3.87915 0.000201054H1.29998C0.955207 0.000201054 0.624551 0.137164 0.380757 0.380959C0.136962 0.624755 0 0.955412 0 1.30019C0 1.64497 0.136962 1.97563 0.380757 2.21942C0.624551 2.46322 0.955207 2.60018 1.29998 2.60018H2.79887ZM10.3999 23.4C10.3999 24.0896 10.1259 24.7509 9.63836 25.2385C9.15077 25.7261 8.48946 26 7.79991 26C7.11035 26 6.44904 25.7261 5.96145 25.2385C5.47386 24.7509 5.19994 24.0896 5.19994 23.4C5.19994 22.7105 5.47386 22.0491 5.96145 21.5616C6.44904 21.074 7.11035 20.8 7.79991 20.8C8.48946 20.8 9.15077 21.074 9.63836 21.5616C10.1259 22.0491 10.3999 22.7105 10.3999 23.4ZM22.0997 23.4C22.0997 24.0896 21.8258 24.7509 21.3382 25.2385C20.8506 25.7261 20.1893 26 19.4998 26C18.8102 26 18.1489 25.7261 17.6613 25.2385C17.1737 24.7509 16.8998 24.0896 16.8998 23.4C16.8998 22.7105 17.1737 22.0491 17.6613 21.5616C18.1489 21.074 18.8102 20.8 19.4998 20.8C20.1893 20.8 20.8506 21.074 21.3382 21.5616C21.8258 22.0491 22.0997 22.7105 22.0997 23.4Z" fill="#0D0D0D"/>
</svg>
