<svg width="76" height="76" viewBox="0 0 76 76" fill="none" xmlns="http://www.w3.org/2000/svg">
<g transform="translate(1.5 0)">
<path d="M70.8275 43.7157C70.8275 43.7157 71.7164 43.7888 72.1426 43.527C72.5687 43.2653 72.7149 42.8088 72.7149 42.8088C72.7149 42.8088 72.0238 43.4327 71.4059 42.9123C70.7879 42.3918 70.2704 42.2001 70.2704 42.2001C70.2704 42.2001 69.8443 41.9505 68.8336 42.2944C68.8336 42.2944 68.3313 42.4223 68.0695 42.2731C67.8047 42.124 67.1746 42.264 67.1746 42.264C67.1746 42.264 67.7682 42.2914 68.0208 42.611C68.2735 42.9305 68.4166 42.964 68.4166 42.964C68.4166 42.964 68.3679 43.0249 69.0467 43.0796C69.7225 43.1375 69.9873 43.3079 69.9873 43.3079C69.9873 43.3079 70.1182 43.3779 70.2126 43.4844C70.1639 43.4388 69.963 43.2775 69.5581 43.3353C69.0832 43.4022 68.7788 43.4844 68.7788 43.4844C68.7788 43.4844 68.2857 43.527 68.0726 43.2562C67.8595 42.9823 67.7621 42.8879 67.7621 42.8879C67.7621 42.8879 67.4972 42.5044 66.9371 42.541C66.9371 42.541 66.2735 42.8483 65.8534 42.4923C65.4364 42.1392 65.8991 41.9414 65.8991 41.9414C65.8991 41.9414 65.4303 41.9231 65.2811 41.4423C65.132 40.9614 65.6373 40.7484 65.6373 40.7484C65.6373 40.7484 66.0361 40.5688 66.5657 41.1227C67.0954 41.6797 67.2628 41.6918 67.2628 41.6918C67.2628 41.6918 67.8656 42.127 68.6053 41.6766L68.8093 41.5458C68.8093 41.5458 68.3009 41.7801 67.8656 41.6158C67.4303 41.4514 67.4211 41.3236 67.4211 41.3236C67.4211 41.3236 67.3146 40.8245 67.9356 41.0466C68.5566 41.2688 68.7636 41.0953 68.7636 41.0953C68.7636 41.0953 69.3115 40.9279 69.4942 41.0071C69.4942 41.0071 68.928 40.6388 68.8214 40.6327C68.7149 40.6236 68.444 40.5597 68.2674 40.6297C68.2674 40.6297 68.6205 40.234 69.1045 40.2949C69.5885 40.3558 70.1456 40.5749 70.1456 40.5749C70.1456 40.5749 71.1867 40.8549 71.5003 40.6875C71.5003 40.6875 70.9127 40.8306 70.3587 40.0819C69.8047 39.3332 69.1715 39.0015 69.1715 39.0015C69.1715 39.0015 68.6631 38.7032 68.1243 38.7854C68.1243 38.7854 68.6723 39.108 68.2278 39.3484C67.7803 39.5888 67.0193 39.2693 67.0193 39.2693C67.0193 39.2693 66.3039 40.6784 65.4455 39.7349C65.4455 39.7349 64.8945 38.688 66.7058 38.688C66.7058 38.688 67.3085 38.8858 67.8291 38.761C67.8291 38.761 67.3603 38.7641 67.068 38.4415C66.7758 38.1189 65.9752 37.988 65.9752 37.988C65.9752 37.988 65.3268 37.851 64.788 38.2376C64.7788 38.1128 64.7728 37.985 64.7606 37.8602C65.0589 37.5284 65.9721 36.6641 66.7727 37.4767C67.7438 38.4628 68.5048 37.6441 68.5048 37.6441C68.5048 37.6441 69.4972 36.2472 69.9691 36.1924L70.2857 36.1406C70.2857 36.1406 70.0695 35.9459 69.7529 36.0737C69.4363 36.2015 68.9554 36.5272 68.7758 36.6976C68.5962 36.868 67.896 37.5771 67.5703 37.2484C67.2446 36.9198 67.0102 36.4693 67.2628 36.1467C67.5155 35.8241 68.1609 35.3737 68.8458 35.4376C69.5307 35.5015 70.3983 34.7437 70.3983 34.7437C70.3983 34.7437 69.3876 35.1546 69.0041 34.9324C68.6205 34.7102 67.2933 34.2933 66.931 34.4059C66.931 34.4059 68.1974 33.9737 68.5718 33.5903C68.9462 33.2068 69.0345 33.082 69.0345 33.082C69.0345 33.082 67.8473 33.8155 66.654 33.2129C65.4607 32.6103 64.6753 32.7898 64.6753 32.7898L64.1761 32.9359C64.1761 32.9359 64.7027 32.6985 64.9189 31.9377C65.135 31.1768 65.2963 30.8999 65.2963 30.8999C65.2963 30.8999 65.4394 30.3673 66.377 30.2607C67.3146 30.1542 67.6464 29.9808 67.6464 29.9808C67.6464 29.9808 66.7545 30.1025 66.5231 30.0294C66.2948 29.9564 65.3877 30.1238 65.2507 30.2334C65.1381 30.3247 63.823 30.8786 63.0528 30.7446C62.9767 30.556 62.9067 30.3642 62.8276 30.1725C62.7058 29.8864 62.5779 29.6095 62.447 29.3295C62.6358 29.1438 62.9706 28.9764 63.5612 29.1225C63.5612 29.1225 63.062 28.386 63.9843 28.176C64.9067 27.963 64.8945 29.0403 64.8945 29.0403C64.8945 29.0403 64.6236 30.0629 63.9691 29.9808C63.9691 29.9808 64.033 30.1755 64.8154 29.8438C65.5977 29.5121 65.7956 29.5242 65.7956 29.5242C65.7956 29.5242 66.1457 29.6095 67.275 29.1347C67.275 29.1347 67.9965 28.6812 68.3161 28.7086C68.6357 28.736 69.2872 28.739 69.9386 27.6343C69.9386 27.6343 69.4576 27.5308 70.3648 27.2873C71.2719 27.0438 71.6433 26.6604 71.6433 26.6604C71.6433 26.6604 70.6479 27.0256 70.3739 26.9404C70.1 26.8552 69.8595 27.0134 70.0117 26.6208C70.0421 26.5447 69.6616 26.5721 69.2354 26.6269C68.7332 26.6908 68.3435 26.1978 68.5231 25.723C68.8975 24.7187 69.4333 23.3126 69.6525 22.8652C70.0056 22.147 69.8108 21.4074 69.8108 21.4074C69.8108 21.4074 69.409 22.8409 68.1304 22.6644C66.8519 22.4878 65.9904 22.6705 65.9904 22.6705C65.9904 22.6705 67.3268 23.0722 66.2583 24.3961C66.2583 24.3961 65.6921 24.9987 65.205 25.02C64.718 25.0413 63.9874 25.7687 63.9874 25.7687C63.9874 25.7687 64.8154 25.3 65.4242 25.5161C66.0361 25.7321 66.2613 25.653 66.2613 25.653C66.2613 25.653 66.2492 25.7747 67.2111 25.2726C68.173 24.7704 68.7027 24.6852 68.1213 25.1813C67.5399 25.6774 67.1959 26.0456 67.1959 26.0456C67.1959 26.0456 66.5657 26.5265 66.0482 26.3378C65.5277 26.1491 65.3146 26.1065 65.3146 26.1065C65.3146 26.1065 64.6266 25.8143 63.9082 26.3408C63.9082 26.3408 63.272 27.3238 62.4044 27.1991C61.5369 27.0743 61.9965 26.4169 61.9965 26.4169C61.9965 26.4169 61.3846 26.7699 60.785 26.3073C60.6693 26.1278 60.5597 25.9482 60.441 25.7717C60.3801 25.3821 60.6236 25.0291 60.6236 25.0291C60.6236 25.0291 61.0072 24.4448 62.1974 24.7461C63.3877 25.0443 63.6282 24.9195 63.6282 24.9195C63.6282 24.9195 64.8123 24.9895 65.4303 23.7509L65.5916 23.3978C65.5916 23.3978 65.1046 24.1496 64.377 24.2987C63.6495 24.4478 63.5277 24.2835 63.5277 24.2835C63.5277 24.2835 62.9554 23.7022 63.9843 23.4709C65.0132 23.2426 65.1411 22.8287 65.1411 22.8287C65.1411 22.8287 65.7377 22.1348 66.0543 22.0861C66.0543 22.0861 64.9767 22.0739 64.8276 22.1531C64.6784 22.2322 64.2553 22.3752 64.0757 22.6218C64.0757 22.6218 64.2126 21.7848 64.9219 21.4531C65.6312 21.1213 66.5688 20.9418 66.5688 20.9418C66.5688 20.9418 68.2157 20.4305 68.4957 19.9375C68.4957 19.9375 67.823 20.6314 66.4348 20.0927C65.0437 19.554 63.9082 19.6483 63.9082 19.6483C63.9082 19.6483 62.9676 19.6788 62.3101 20.2509C62.3101 20.2509 63.3268 20.2175 62.928 20.9235C62.5292 21.6296 61.2294 21.8457 61.2294 21.8457C61.2294 21.8457 61.4668 24.3596 59.5003 23.8178C59.5003 23.8178 57.8596 22.8744 60.3101 21.3313C60.3101 21.3313 61.2933 21.0879 61.89 20.4701C61.89 20.4701 61.2598 20.8748 60.5871 20.6892C59.9143 20.5035 58.7241 21.0087 58.7241 21.0087C58.7241 21.0087 58.6206 21.0483 58.4653 21.1335C58.7698 20.7866 59.0224 20.5279 59.0224 20.5279L59.5247 19.7427C59.5247 19.7427 59.7804 19.1066 59.339 18.2818C58.8976 17.454 58.8093 17.0858 58.8093 17.0858C58.8093 17.0858 58.4927 16.5136 59.2081 15.6493C59.9235 14.788 60.0635 14.368 60.0635 14.368C60.0635 14.368 59.3999 15.2049 59.1442 15.3328C58.8885 15.4606 58.2523 16.3462 58.2249 16.5501C58.1975 16.754 57.2507 18.9362 56.3101 18.9605C55.3695 18.9818 55.1807 18.5375 55.1807 18.5375C55.1807 18.5375 54.7119 17.6579 55.8717 16.9884C55.8717 16.9884 54.8428 16.7693 55.4547 15.8319C56.0666 14.8945 56.9433 15.8228 56.9433 15.8228C56.9433 15.8228 57.5491 16.9184 56.925 17.3871C56.925 17.3871 57.1411 17.5027 57.5369 16.5745C57.9326 15.6462 58.1122 15.4971 58.1122 15.4971C58.1122 15.4971 58.4806 15.281 59.0589 13.948C59.0589 13.948 59.3025 12.9711 59.5978 12.7306C59.89 12.4902 60.4531 11.9576 60.1 10.4815C60.1 10.4815 59.1016 8.28115 59.6769 7.32856C60.2522 6.37597 60.2522 5.73989 60.2522 5.73989C60.2522 5.73989 59.7013 6.869 59.3968 7.02117C59.0924 7.17335 58.578 8.31463 58.5901 8.53071C58.6023 8.7468 58.6663 8.93853 58.6663 8.93853C58.6663 8.93853 57.7774 8.93549 57.8048 7.71508C57.8048 7.71508 58.3436 6.11424 58.0544 5.21034C57.7652 4.30644 56.9889 3.83471 56.9889 3.83471C56.9889 3.83471 57.823 5.38686 56.5871 6.28771C55.3512 7.18552 54.7637 8.04985 54.7637 8.04985C54.7637 8.04985 54.1123 8.72245 54.2858 10.7311C54.2858 10.7311 54.2949 11.7111 53.8992 12.128C53.5034 12.545 53.476 13.7654 53.476 13.7654C53.476 13.7654 53.7957 12.685 54.4958 12.3715C55.196 12.055 55.3238 11.8024 55.3238 11.8024C55.3238 11.8024 55.4121 11.918 55.823 10.6976C56.234 9.47722 56.6663 9.07244 56.6663 9.07244C56.6663 9.07244 56.8702 8.84418 57.1259 8.71636C57.1259 8.71636 56.6176 8.96896 56.5262 9.87286C56.4349 10.7737 56.4471 11.3733 56.4471 11.3733C56.4471 11.3733 56.304 12.3015 55.7074 12.5663C55.1077 12.8311 54.8915 12.9711 54.8915 12.9711C54.8915 12.9711 54.0635 13.2876 53.8839 14.3284C53.8839 14.3284 54.1457 15.6888 53.3056 16.2975C52.4654 16.9062 52.3162 15.9627 52.3162 15.9627C52.3162 15.9627 52.0727 16.8149 51.1199 16.8758C50.1671 16.9366 50.0027 15.908 50.0027 15.908C50.0027 15.908 49.8535 15.0954 51.1138 14.3741C52.3741 13.6528 52.4776 13.3484 52.4776 13.3484C52.4776 13.3484 53.5491 12.4354 53.0559 10.8711L52.9037 10.4389C52.9037 10.4389 53.1046 11.4828 52.6054 12.2041C52.1062 12.9254 51.8657 12.8889 51.8657 12.8889C51.8657 12.8889 50.9007 12.8615 51.5887 11.8207C52.2766 10.7798 52.0514 10.3233 52.0514 10.3233C52.0514 10.3233 51.9905 9.24287 52.2219 8.93853C52.2219 8.93853 51.2904 9.81199 51.2264 10.0037C51.1625 10.1955 50.919 10.6642 50.9707 11.0202C50.9707 11.0202 50.4015 10.1924 50.7333 9.32809C51.0651 8.46376 51.7165 7.53856 51.7165 7.53856C51.7165 7.53856 52.6998 5.74902 52.5384 5.10078C52.5384 5.10078 52.5354 6.2451 50.9068 6.92683C49.2782 7.60856 48.3832 8.62201 48.3832 8.62201C48.3832 8.62201 47.6039 9.41939 47.5126 10.4511C47.5126 10.4511 48.3528 9.58982 48.5933 10.5181C48.8307 11.4463 47.8992 12.7032 47.8992 12.7032C47.8992 12.7032 50.1701 14.6541 48.0423 15.8045C48.0423 15.8045 47.8596 15.8501 47.6191 15.8319C47.4182 15.7619 47.2173 15.6949 47.0164 15.628C46.5963 15.3297 46.2919 14.6267 46.6907 13.0137C46.6907 13.0137 47.33 11.9972 47.333 10.9807C47.333 10.9807 47.126 11.845 46.4015 12.2376C45.677 12.6302 45.0743 14.0393 45.0743 14.0393C45.0743 14.0393 44.8825 14.441 44.8246 15.0132C44.5629 14.9523 44.3011 14.8884 44.0393 14.8367L44.2645 14.7971C44.2645 14.7971 43.2721 13.3545 44.7912 12.7306C46.3071 12.1067 45.7531 10.9076 45.7531 10.9076C45.7531 10.9076 44.6664 9.19113 44.8186 8.65245L44.9068 8.28115C44.9068 8.28115 44.5963 8.43028 44.5933 8.83505C44.5903 9.23983 44.7333 9.91243 44.8399 10.1863C44.9464 10.4602 45.4091 11.5467 44.9038 11.7537C44.3985 11.9606 43.7988 12.0154 43.5583 11.5954C43.3178 11.1724 43.1138 10.2655 43.4913 9.54417C43.8688 8.82288 43.4274 7.53247 43.4274 7.53247C43.4274 7.53247 43.4244 8.82288 43.0103 9.14548C42.5963 9.46504 41.54 10.7341 41.5005 11.1815C41.5005 11.1815 41.5979 9.59895 41.3422 9.01766C41.0865 8.43637 40.9921 8.28419 40.9921 8.28419C40.9921 8.28419 41.263 9.91547 40.0667 10.9533C38.8703 11.9911 38.7151 12.9345 38.7151 12.9345L38.6512 13.5463C38.6512 13.5463 38.6299 12.8615 37.8901 12.2833C37.1504 11.705 36.9221 11.4037 36.9221 11.4037C36.9221 11.4037 36.4016 11.0081 36.706 9.93069C37.0104 8.85332 36.9708 8.41202 36.9708 8.41202C36.9708 8.41202 36.7029 9.44678 36.5203 9.66287C36.3376 9.88199 36.1154 10.9502 36.1733 11.1481C36.2311 11.3459 36.2494 13.7258 35.397 14.1245C34.5447 14.5232 34.1915 14.1945 34.1915 14.1945C34.1915 14.1945 33.4092 13.5797 34.1976 12.4993C34.1976 12.4993 33.1687 12.7154 33.3483 11.6076C33.5279 10.4998 34.706 10.9989 34.706 10.9989C34.706 10.9989 35.7045 11.7537 35.324 12.4354C35.324 12.4354 35.5675 12.4537 35.5553 11.4463C35.5431 10.4389 35.6436 10.2259 35.6436 10.2259C35.6436 10.2259 35.8932 9.87895 35.881 8.42724C35.881 8.42724 35.7075 7.43508 35.881 7.09422C36.0515 6.7564 36.3498 6.04119 35.4305 4.836C35.4305 4.836 33.6284 3.22603 33.7684 2.12431C33.9084 1.02259 33.6527 0.438253 33.6527 0.438253C33.6527 0.438253 33.6071 1.69519 33.3879 1.95692C33.1687 2.21865 33.1626 3.47254 33.2631 3.66428C33.3605 3.85602 33.4975 4.00514 33.4975 4.00514C33.4975 4.00514 32.6817 4.36122 32.2159 3.23516C32.2159 3.23516 32.0607 1.55519 31.4305 0.846071C30.7973 0.118693 29.8993 0 29.8993 0C29.8993 0 31.2905 1.08346 30.5234 2.4043C29.7563 3.72515 29.5675 4.75383 29.5675 4.75383C29.5675 4.75383 29.2448 5.63033 30.2159 7.39856C30.2159 7.39856 30.6208 8.29028 30.429 8.83201C30.2372 9.37374 30.703 10.5028 30.703 10.5028C30.703 10.5028 30.5599 9.38591 31.0713 8.81375C31.5827 8.24159 31.598 7.95855 31.598 7.95855C31.598 7.95855 31.7258 8.02855 31.6071 6.74727C31.4884 5.46599 31.7228 4.92121 31.7228 4.92121C31.7228 4.92121 31.8171 4.62905 31.9998 4.40992C31.9998 4.40992 31.6375 4.84817 31.9176 5.70946C32.1976 6.57075 32.4503 7.11248 32.4503 7.11248C32.4503 7.11248 32.6938 8.01942 32.2555 8.50332C31.8171 8.98723 31.6741 9.20331 31.6741 9.20331C31.6741 9.20331 31.0439 9.82721 31.2996 10.8528C31.2996 10.8528 32.0911 11.9911 31.5675 12.8858C31.0439 13.7806 30.5264 12.9802 30.5264 12.9802C30.5264 12.9802 30.6482 13.8567 29.7989 14.298C28.9526 14.7393 28.3864 13.8628 28.3864 13.8628C28.3864 13.8628 27.9207 13.178 28.7821 12.0093C29.6436 10.8407 29.6132 10.5211 29.6132 10.5211C29.6132 10.5211 30.222 9.25505 29.1413 8.02246L28.8278 7.68768C28.8278 7.68768 29.4336 8.56115 29.2692 9.42243C29.1079 10.2837 28.8704 10.3476 28.8704 10.3476C28.8704 10.3476 27.9754 10.7128 28.1855 9.4833C28.3955 8.25376 28.0028 7.92507 28.0028 7.92507C28.0028 7.92507 27.5097 6.96031 27.598 6.58901C27.598 6.58901 27.1018 7.76377 27.1201 7.96464C27.1383 8.1655 27.1048 8.69201 27.2966 8.9994C27.2966 8.9994 26.4412 8.47289 26.3956 7.54769C26.3499 6.62249 26.5721 5.51468 26.5721 5.51468C26.5721 5.51468 24.3256 8.74984 24.9192 9.50156C25.5128 10.2533 25.1688 11.778 25.1688 11.778C25.1688 11.778 27.9876 14.7515 27.8324 16.8027C27.8324 16.8027 27.8324 16.8027 27.8293 16.8027C27.7898 15.8593 27.0774 15.2384 27.0774 15.2384C27.0774 15.2384 26.2251 14.4258 25.5949 14.368C24.9648 14.3102 24.5569 13.7624 24.5569 13.7624C24.8674 14.4806 25.6254 15.001 25.6254 15.001C27.2144 17.101 25.5158 17.3779 25.5158 17.3779C23.665 17.2106 24.6756 15.1441 24.6756 15.1441C24.6756 15.1441 23.6376 14.5384 23.5249 13.811C23.4123 13.0837 24.2677 13.4367 24.2677 13.4367C23.8902 12.7367 23.0988 12.4111 23.0988 12.4111C23.0988 12.4111 22.1612 11.9667 20.8035 11.9789C19.4458 11.9911 19.0988 11.1846 19.0988 11.1846C19.181 11.6928 20.4169 12.6576 20.4169 12.6576C20.4169 12.6576 21.1566 13.1141 21.6528 13.6224C22.149 14.1306 21.9998 14.8884 21.9998 14.8884C21.9268 14.6206 21.6132 14.365 21.5097 14.2493C21.4062 14.1337 20.4839 13.7989 20.4839 13.7989C20.7396 13.945 21.0227 14.7241 21.0227 14.7241C21.0227 14.7241 21.0014 15.1167 21.802 15.6432C22.6056 16.1697 21.9298 16.4801 21.9298 16.4801C21.9298 16.4801 21.7715 16.5806 21.1992 16.2214C20.6269 15.8623 20.4534 15.0649 20.4534 15.0649L20.4778 15.4149C20.6056 16.6688 21.6376 16.9884 21.6376 16.9884C21.6376 16.9884 21.802 17.171 22.91 17.2988C24.0181 17.4266 24.1581 18.0445 24.1581 18.0445C24.1581 18.0445 24.356 18.8205 23.665 19.067C22.974 19.3136 22.5417 18.787 22.5417 18.787C22.5417 18.787 22.7213 19.4962 21.942 19.3227C21.1627 19.1492 20.9374 18.1084 20.9374 18.1084C20.493 17.4266 19.8142 17.4571 19.8142 17.4571C19.8142 17.4571 19.6193 17.4236 19.1171 17.4175C18.6148 17.4114 18.2312 16.7997 18.2312 16.7997C18.2312 16.7997 18.0577 16.3736 17.7198 15.7649C17.3819 15.1562 16.9466 15.1319 16.9466 15.1319C17.1658 15.1441 17.3789 15.2445 17.3789 15.2445C17.3789 15.2445 17.8081 15.3997 18.4656 16.1362C19.1262 16.8727 19.1536 16.7662 19.1536 16.7662C19.1536 16.7662 19.321 16.9062 19.9116 16.9184C20.5021 16.9306 21.0562 17.594 21.0562 17.594C21.0562 17.594 20.6665 16.7419 20.2586 16.5653C19.8507 16.3888 19.5615 15.6949 19.5615 15.6949C19.0744 14.225 18.4108 13.948 18.4108 13.948C18.4108 13.948 17.735 13.5158 16.5904 13.2571C15.4459 12.9985 15.5646 11.6472 15.5646 11.6472C15.5646 11.6472 15.1628 12.2163 15.2297 12.9406C15.2997 13.665 16.1643 14.6328 16.1643 14.6328C16.5539 15.4849 15.9268 15.7558 15.9268 15.7558C15.9268 15.7558 15.9147 15.6006 15.8568 15.4454C15.799 15.2902 15.0927 14.6389 14.8309 14.6236C14.5692 14.6084 13.8386 13.9784 13.8386 13.9784C13.8386 13.9784 14.0334 14.4258 14.7274 14.9249C15.4215 15.4241 15.385 17.2806 15.385 17.2806C15.5828 18.4279 16.1399 18.6349 16.42 18.717C16.7 18.7992 17.1688 19.414 17.1688 19.414C17.9786 20.1809 18.3043 20.2205 18.3043 20.2205C18.3043 20.2205 18.4778 20.2722 19.0379 20.8079C19.598 21.3405 19.7168 21.1944 19.7168 21.1944C19.1353 21.0513 19.2297 20.0957 19.2297 20.0957C19.2297 20.0957 19.5645 19.1736 20.283 19.6514C21.0014 20.1292 20.3408 20.5948 20.3408 20.5948C20.9831 20.6709 21.1962 21.0027 21.2662 21.237C21.0257 21.4592 20.7852 21.6844 20.5508 21.9187C20.4747 21.9948 20.4047 22.0739 20.3286 22.1531C19.6254 22.0739 18.6148 21.1183 18.5448 20.9996C18.4656 20.8627 17.7442 20.4305 17.528 20.4183C17.3089 20.4061 16.5874 20.0166 16.5874 20.0166C16.5874 20.0166 16.8127 20.2692 17.5798 20.6618C18.3469 21.0544 18.2952 21.5535 18.2952 21.5535C18.2952 21.5535 18.4656 22.3357 18.5843 22.7861C18.076 22.777 17.3271 22.5791 17.3149 21.4957C17.2967 19.8553 15.9755 19.9283 15.9755 19.9283C15.9755 19.9283 13.9786 20.3027 13.5342 19.9618L13.2206 19.7427C13.2206 19.7427 13.245 20.0866 13.6194 20.2388C13.9938 20.3909 14.6727 20.5066 14.9649 20.5096C15.2571 20.5127 16.4382 20.4822 16.4474 21.03C16.4535 21.5779 16.283 22.1561 15.802 22.2231C15.321 22.29 14.3987 22.1439 13.869 21.5261C13.3393 20.9083 11.9756 20.8414 11.9756 20.8414C11.9756 20.8414 13.1749 21.3222 13.3211 21.8244C13.4672 22.3296 14.2526 23.7752 14.6544 23.9791C14.6544 23.9791 13.2176 23.3035 12.5844 23.3248C11.9482 23.3461 11.7716 23.3796 11.7716 23.3796C11.7716 23.3796 13.388 23.7296 13.9086 25.2269C14.4322 26.7212 15.251 27.2143 15.251 27.2143L15.7959 27.5004C15.7959 27.5004 15.1506 27.2691 14.3408 27.7408C13.5311 28.2156 13.1658 28.316 13.1658 28.316C13.1658 28.316 12.6057 28.6538 11.7168 27.9721C10.8279 27.2904 10.4048 27.1656 10.4048 27.1656C10.4048 27.1656 11.2663 27.7956 11.4033 28.0451C11.5403 28.2947 12.4504 28.9003 12.6544 28.9186C12.8249 28.9338 14.3956 29.5395 14.9436 30.2851C14.7092 30.8481 14.4991 31.4172 14.3043 31.9925C13.9908 31.9985 13.5646 31.8646 13.178 31.2529C13.178 31.2529 12.9984 32.2907 12.0364 31.7125C11.0745 31.1342 11.9725 30.2273 11.9725 30.2273C11.9725 30.2273 13.044 29.579 13.5372 30.1847C13.5372 30.1847 13.6437 29.9655 12.7031 29.6034C11.7625 29.2412 11.6042 29.0708 11.6042 29.0708C11.6042 29.0708 11.3759 28.7086 10.0212 28.1851C10.0212 28.1851 9.03494 27.9782 8.78228 27.6951C8.52962 27.4121 7.97863 26.8704 6.51746 27.2782C6.51746 27.2782 4.35309 28.3586 3.38202 27.8199C2.4079 27.2812 1.77472 27.3025 1.77472 27.3025C1.77472 27.3025 2.9254 27.8108 3.08674 28.109C3.25112 28.4073 4.41093 28.876 4.62706 28.8577C4.84319 28.8364 5.03193 28.7664 5.03193 28.7664C5.03193 28.7664 5.06237 29.6551 3.84168 29.6734C3.84168 29.6734 2.22221 29.1955 1.33028 29.5182C0.444441 29.8408 0 30.632 0 30.632C0 30.632 1.52206 29.7403 2.46574 30.9394C3.40941 32.1416 4.29525 32.6955 4.29525 32.6955C4.29525 32.6955 4.99235 33.3194 6.99234 33.0729C6.99234 33.0729 7.9695 33.0272 8.40481 33.4046C8.84012 33.782 10.0578 33.7668 10.0578 33.7668C10.0578 33.7668 8.96797 33.4868 8.62399 32.799C8.28305 32.1111 8.0243 31.9925 8.0243 31.9925C8.0243 31.9925 8.13693 31.8981 6.90102 31.5359C5.6651 31.1738 5.24502 30.7538 5.24502 30.7538C5.24502 30.7538 5.01062 30.559 4.87363 30.3094C4.87363 30.3094 5.14456 30.8086 6.05171 30.8664C6.95581 30.9242 7.55246 30.8907 7.55246 30.8907C7.55246 30.8907 8.48396 30.9973 8.77315 31.5846C9.0593 32.172 9.20846 32.382 9.20846 32.382C9.20846 32.382 9.55549 33.1976 10.6027 33.3376C10.6027 33.3376 11.9543 33.0242 12.5935 33.8398C13.2328 34.6585 12.2982 34.8411 12.2982 34.8411C12.2982 34.8411 13.1567 35.0541 13.2541 36.0037C13.3515 36.9532 12.3287 37.1541 12.3287 37.1541C12.3287 37.1541 11.522 37.3337 10.7518 36.1011C9.98166 34.8685 9.67421 34.7772 9.67421 34.7772C9.67421 34.7772 8.7214 33.7424 7.17803 34.2902L6.75185 34.4576C6.75185 34.4576 7.78686 34.2172 8.52962 34.6889C9.27239 35.1607 9.24194 35.4011 9.24194 35.4011C9.24194 35.4011 9.25108 36.3689 8.18563 35.7176C7.12019 35.0694 6.66966 35.3128 6.66966 35.3128C6.66966 35.3128 5.59205 35.4133 5.2785 35.1972C5.2785 35.1972 6.18869 36.095 6.38047 36.1498C6.57225 36.2076 7.05322 36.4328 7.40634 36.3689C7.40634 36.3689 6.59965 36.9684 5.72599 36.6702C4.84928 36.3689 3.89952 35.7541 3.89952 35.7541C3.89952 35.7541 2.07304 34.8381 1.43074 35.0267C1.43074 35.0267 2.57532 34.9872 3.31809 36.588C4.06085 38.1889 5.10803 39.0441 5.10803 39.0441C5.10803 39.0441 5.93603 39.7897 6.96799 39.8445C6.96799 39.8445 6.07606 39.0349 6.99538 38.761C7.91471 38.4871 9.20541 39.3697 9.20541 39.3697C9.20541 39.3697 11.0715 37.0293 12.3013 39.108C12.3013 39.108 12.6727 40.4014 11.2754 40.6571C11.248 40.6266 11.2206 40.6023 11.1932 40.5688C10.1552 39.3058 9.17193 40.1853 9.17193 40.1853C9.17193 40.1853 9.12627 40.2371 9.05321 40.3193C8.65747 40.158 8.07909 39.9784 7.50984 39.9967C7.50984 39.9967 8.23738 40.1427 8.68183 40.7119C8.24652 41.1592 7.62856 41.7253 7.29066 41.7314L6.91015 41.7557C6.91015 41.7557 7.14455 42.0084 7.52811 41.8927C7.91166 41.7771 8.5144 41.4453 8.74271 41.2658C8.78837 41.2292 8.86447 41.1684 8.95884 41.0953C9.3698 41.5549 10.1308 41.9171 10.4718 42.0631C10.4687 42.0662 10.4657 42.0723 10.4626 42.0753C10.1308 42.4283 9.32413 42.8879 8.52353 42.7388C7.72597 42.5896 6.624 43.387 6.624 43.387C6.624 43.387 7.85687 43.0127 8.28305 43.314C8.70922 43.6153 10.2282 44.2514 10.6666 44.157C10.6666 44.157 9.12931 44.5283 8.64834 44.9422C8.16737 45.3561 8.04865 45.49 8.04865 45.49C8.04865 45.49 9.52505 44.7566 10.8645 45.5935C12.2039 46.4304 13.1506 46.3026 13.1506 46.3026L13.6559 46.2052C13.659 46.2113 13.659 46.2205 13.662 46.2265C13.4733 46.3209 13.0319 46.6039 12.7731 47.2796C12.4383 48.153 12.216 48.4604 12.216 48.4604C12.216 48.4604 11.9908 49.0721 10.8736 49.0965C9.7564 49.1208 9.34849 49.2882 9.34849 49.2882C9.34849 49.2882 10.4139 49.2426 10.6757 49.3521C10.9375 49.4617 12.0243 49.3643 12.1947 49.2487C12.3165 49.1665 13.5189 48.78 14.423 48.8226C14.6026 49.3369 14.7944 49.8452 15.0075 50.3504C15.0653 50.4843 15.1262 50.6152 15.1871 50.746C14.9375 50.8647 14.5752 50.9134 14.0638 50.7369C14.0638 50.7369 14.5692 51.656 13.4611 51.8051C12.353 51.9573 12.4839 50.6882 12.4839 50.6882C12.4839 50.6882 12.9132 49.5165 13.6742 49.6808C13.6742 49.6808 13.6194 49.4434 12.6605 49.7478C11.7016 50.0552 11.4702 50.0186 11.4702 50.0186C11.4702 50.0186 11.0684 49.8817 9.68639 50.3169C9.68639 50.3169 8.78837 50.7704 8.41699 50.7065C8.04561 50.6425 7.27544 50.5665 6.39265 51.796C6.39265 51.796 5.382 53.9873 4.28916 54.1729C3.19632 54.3586 2.71535 54.7755 2.71535 54.7755C2.71535 54.7755 3.92691 54.4529 4.24046 54.5838C4.554 54.7146 5.75034 54.3555 5.90559 54.2064C6.06084 54.0573 6.16434 53.8838 6.16434 53.8838C6.16434 53.8838 6.74272 54.5564 5.80513 55.3325C5.80513 55.3325 4.24655 55.9716 3.7534 56.7781C3.26025 57.5846 3.40941 58.4794 3.40941 58.4794C3.40941 58.4794 4.0365 56.8359 5.52203 57.1798C7.00756 57.5237 8.03952 57.405 8.03952 57.405C8.03952 57.405 8.97102 57.4568 10.3744 56.0142C10.3744 56.0142 11.1049 55.369 11.6803 55.3933C12.2526 55.4177 13.1932 54.6446 13.1932 54.6446C13.1932 54.6446 12.1704 55.1072 11.4733 54.7846C10.7762 54.462 10.5022 54.532 10.5022 54.532C10.5022 54.532 10.5296 54.389 9.3424 54.8759C8.15519 55.3629 7.56768 55.299 7.56768 55.299C7.56768 55.299 7.26936 55.2929 7.01061 55.1894C7.08671 55.2168 7.5829 55.3629 8.26174 54.8851C9.00146 54.3646 9.4459 53.966 9.4459 53.966C9.4459 53.966 10.2374 53.4668 10.8279 53.7468C11.4185 54.0268 11.6651 54.0968 11.6651 54.0968C11.6651 54.0968 12.4444 54.5138 13.3485 53.972C13.3485 53.972 14.2039 52.8855 15.2115 53.1229C16.2191 53.3603 15.6072 54.0877 15.6072 54.0877C15.6072 54.0877 16.4078 53.7164 17.0775 54.3951C17.7472 55.0738 17.0745 55.8681 17.0745 55.8681C17.0745 55.8681 16.56 56.5133 15.1932 56.0324C13.8264 55.5516 13.5281 55.6733 13.5281 55.6733C13.5281 55.6733 12.1399 55.4603 11.2815 56.8542L11.0532 57.2498C11.0532 57.2498 11.7077 56.419 12.5783 56.3216C13.4489 56.2242 13.5768 56.4311 13.5768 56.4311C13.5768 56.4311 14.1856 57.1768 12.9527 57.3381C11.7168 57.4963 11.522 57.9681 11.522 57.9681C11.522 57.9681 10.7457 58.7198 10.3683 58.7441C10.3683 58.7441 11.6346 58.875 11.8203 58.7989C12.006 58.7228 12.5174 58.598 12.7549 58.3302C12.7549 58.3302 12.5022 59.3011 11.6346 59.6115C10.767 59.9219 9.64377 60.0376 9.64377 60.0376C9.64377 60.0376 7.65291 60.4637 7.26935 61.0115C7.26935 61.0115 8.13388 60.2658 9.71074 61.051C11.2876 61.8332 12.6361 61.8454 12.6361 61.8454C12.6361 61.8454 13.7472 61.9093 14.5813 61.3067C14.5813 61.3067 13.3819 61.2337 13.9268 60.4484C14.4717 59.6632 16.0273 59.5446 16.0273 59.5446C16.0273 59.5446 16.0182 56.559 18.2738 57.4111C18.2738 57.4111 18.7396 57.7398 18.8096 58.2633C17.735 58.2115 17.5524 59.1489 17.5524 59.1489C17.5524 59.1489 17.528 59.5598 17.4641 60.0254C17.3393 60.0985 17.2054 60.1745 17.0562 60.2506C17.0562 60.2506 15.8751 60.4332 15.1049 61.0937C15.1049 61.0937 15.8903 60.6858 16.6605 60.975C16.8188 61.0358 17.0105 61.0632 17.2084 61.0693C17.1658 61.1606 17.1171 61.2367 17.0623 61.2793L16.8066 61.5045C16.8066 61.5045 17.111 61.5563 17.321 61.2641C17.3606 61.2093 17.4032 61.1393 17.4458 61.0693C18.149 61.0389 18.8857 60.8015 18.8857 60.8015C18.8857 60.8015 18.9953 60.7711 19.1627 60.698C18.9983 60.9476 18.7792 61.1758 18.4961 61.3219C17.8446 61.6506 17.4976 62.8223 17.4976 62.8223C17.4976 62.8223 18.1703 61.8819 18.6391 61.8636C19.1079 61.8454 20.5356 61.468 20.7974 61.1637C20.7974 61.1637 19.9024 62.2684 19.7868 62.8254C19.6711 63.3823 19.6589 63.5436 19.6589 63.5436C19.6589 63.5436 20.3104 62.2136 21.7228 62.0797C23.1353 61.9458 23.738 61.3371 23.738 61.3371L23.7624 61.3067C23.8202 61.3493 23.8781 61.3889 23.9359 61.4284C23.9055 61.6415 23.9055 61.9154 24.0029 62.238C24.2403 63.0445 24.2525 63.3823 24.2525 63.3823C24.2525 63.3823 24.426 63.9423 23.6437 64.5692C22.8613 65.1962 22.6604 65.5401 22.6604 65.5401C22.6604 65.5401 23.3941 64.9253 23.6406 64.8614C23.8872 64.7975 24.6056 64.134 24.6665 63.9606C24.703 63.851 25.2083 63.1145 25.7806 62.6245C26.3438 62.9562 26.9191 63.2667 27.5097 63.5558C27.3758 63.7232 27.1566 63.8845 26.8096 64.0001C26.8096 64.0001 27.6741 64.3775 26.9648 65.0897C26.2586 65.8018 25.6589 64.8279 25.6589 64.8279C25.6589 64.8279 25.324 63.7566 25.9572 63.4584C25.9572 63.4584 25.7898 63.3184 25.2723 64.061C24.7548 64.8036 24.5721 64.904 24.5721 64.904C24.5721 64.904 24.2099 65.0258 23.4641 66.091C23.4641 66.091 23.0744 66.9035 22.7731 67.0618C22.4717 67.2201 21.8842 67.5853 21.9268 68.9426C21.9268 68.9426 22.4047 71.0548 21.7289 71.7852C21.0531 72.5156 20.9374 73.0726 20.9374 73.0726C20.9374 73.0726 21.6254 72.1808 21.9207 72.1017C22.216 72.0226 22.8705 71.1126 22.9009 70.9209C22.9283 70.7291 22.907 70.5496 22.907 70.5496C22.907 70.5496 23.6863 70.7139 23.4428 71.7791C23.4428 71.7791 22.6817 73.0847 22.7731 73.9308C22.8644 74.7769 23.458 75.3308 23.458 75.3308C23.458 75.3308 23.0074 73.8182 24.2525 73.2521C25.4975 72.6861 26.1703 72.0348 26.1703 72.0348C26.1703 72.0348 26.8613 71.563 27.0744 69.7705C27.0744 69.7705 27.2418 68.9092 27.6649 68.614C28.0881 68.3187 28.3316 67.2535 28.3316 67.2535C28.3316 67.2535 27.8537 68.1422 27.184 68.2944C26.5143 68.4466 26.356 68.6444 26.356 68.6444C26.356 68.6444 26.2981 68.5287 25.7198 69.5239C25.1414 70.5191 24.6848 70.7961 24.6848 70.7961C24.6848 70.7961 24.4656 70.9604 24.219 71.0243C24.219 71.0243 24.7122 70.8935 24.9557 70.1204C25.1992 69.3474 25.2966 68.8179 25.2966 68.8179C25.2966 68.8179 25.5889 68.0296 26.1612 67.9048C26.7334 67.7801 26.9496 67.6979 26.9496 67.6979C26.9496 67.6979 27.7319 67.5701 28.0789 66.6905C28.0789 66.6905 28.0942 65.4488 28.9404 65.0684C29.7867 64.6879 29.7502 65.5401 29.7502 65.5401C29.7502 65.5401 30.1185 64.8371 30.9648 64.9558C31.0043 64.9618 31.0378 64.971 31.0713 64.9771C31.1292 64.9953 31.187 65.0166 31.2448 65.0349C31.8019 65.2936 31.7684 66.0057 31.7684 66.0057C31.7684 66.0057 31.7532 66.7483 30.5173 67.1531C29.2814 67.5579 29.1353 67.8074 29.1353 67.8074C29.1353 67.8074 28.0302 68.4131 28.1794 69.877L28.2342 70.2848C28.2342 70.2848 28.2464 69.3322 28.8126 68.7905C29.3788 68.2487 29.5858 68.3248 29.5858 68.3248C29.5858 68.3248 30.429 68.5227 29.6345 69.3109C28.843 70.0991 28.9587 70.5435 28.9587 70.5435C28.9587 70.5435 28.8156 71.5022 28.5599 71.7274C28.5599 71.7274 29.534 71.1278 29.6254 70.9726C29.7167 70.8174 30.015 70.4491 30.0333 70.1265C30.0333 70.1265 30.3833 70.9543 29.9359 71.6543C29.4884 72.3513 28.7487 73.0452 28.7487 73.0452C28.7487 73.0452 27.5614 74.436 27.5888 75.0356C27.5888 75.0356 27.7989 74.0312 29.3514 73.7299C30.9039 73.4256 31.8689 72.6982 31.8689 72.6982C31.8689 72.6982 32.6969 72.1382 32.9617 71.2526C32.9617 71.2526 32.0667 71.8582 32.0272 71C32.018 70.8022 32.0667 70.6013 32.1459 70.4096C32.5173 70.6622 33.2174 71.1856 33.1139 71.4656L33.0378 71.7213C33.0378 71.7213 33.3788 71.5539 33.3605 71.2982C33.3422 71.0426 33.1413 70.653 33.0074 70.507C32.8734 70.3609 32.2859 69.7857 32.846 69.5331C33.2661 69.3444 33.7471 69.1983 34.088 69.2226C33.9084 69.4265 33.3727 70.0839 33.2174 70.8235C33.2174 70.8235 33.5553 70.1022 34.2616 69.8891C34.3985 69.8465 34.5386 69.7705 34.6756 69.6761C34.7912 69.9287 34.8095 70.2544 34.569 70.5891C34.1824 71.1339 34.7547 71.843 34.7547 71.843C34.7547 71.843 34.6847 71.0274 35.1352 70.7261C35.5857 70.4248 36.709 69.3718 36.7303 69.0796C36.7303 69.0796 36.709 70.1022 37.0317 70.4065C37.3544 70.7139 37.4701 70.787 37.4701 70.787C37.4701 70.787 37.0713 69.8222 38.3681 68.8818C39.6649 67.9414 39.7866 67.3083 39.7866 67.3083L39.8262 66.9066C39.8262 66.9066 39.8901 67.3327 40.7607 67.5214C41.6314 67.7101 41.9084 67.844 41.9084 67.844C41.9084 67.844 42.5202 67.9688 42.2371 68.7205C41.954 69.4722 42.0241 69.74 42.0241 69.74C42.0241 69.74 42.2706 69.0248 42.4624 68.8422C42.6572 68.6596 42.849 67.9322 42.7729 67.8227C42.6968 67.7161 42.5537 66.3162 43.397 65.811C43.9327 65.7166 44.4685 65.6101 44.9982 65.4823C45.2204 65.5888 45.54 65.8657 44.9342 66.4988C44.9342 66.4988 46.088 66.1153 45.9479 66.8579C45.8079 67.6005 44.4441 67.567 44.4441 67.567C44.4441 67.567 43.2721 67.3296 43.6648 66.8092C43.6648 66.8092 43.3878 66.8549 43.4578 67.4879C43.5279 68.1209 43.4244 68.2792 43.4244 68.2792C43.4244 68.2792 43.1595 68.5561 43.2569 69.4692C43.2569 69.4692 43.5065 70.0535 43.333 70.3091C43.1595 70.5648 42.8612 71.0852 43.9692 71.6269C43.9692 71.6269 46.1032 72.2113 46.0058 72.9417C45.9084 73.6721 46.231 73.9765 46.231 73.9765C46.231 73.9765 46.2128 73.173 46.4441 72.9569C46.6755 72.7378 46.6115 71.9495 46.4898 71.8491C46.368 71.7517 46.2067 71.6908 46.2067 71.6908C46.2067 71.6908 47.1108 71.2709 47.7013 71.8704C47.7013 71.8704 47.9723 72.893 48.7272 73.1913C49.4822 73.4865 50.508 73.3465 50.508 73.3465C50.508 73.3465 48.8703 72.9965 49.6648 71.98C50.4593 70.9635 50.6146 70.2696 50.6146 70.2696C50.6146 70.2696 50.9311 69.6396 49.7318 68.757C49.7318 68.757 49.2234 68.2913 49.4091 67.9048C49.5978 67.5153 49.0042 66.9157 49.0042 66.9157C49.0042 66.9157 49.2295 67.5853 48.6815 68.0692C48.1336 68.5531 48.1336 68.7357 48.1336 68.7357C48.1336 68.7357 47.9844 68.7235 48.1914 69.5026C48.3984 70.2817 48.164 70.6835 48.164 70.6835C48.164 70.6835 48.0758 70.8843 47.887 71.0639C47.9357 71.0122 48.2371 70.6713 47.8992 70.2331C47.5309 69.7552 47.2173 69.4752 47.2173 69.4752C47.2173 69.4752 46.8886 68.9609 47.3604 68.55C47.8322 68.1392 47.9814 67.9688 47.9814 67.9688C47.9814 67.9688 48.6602 67.424 48.3102 66.8396C48.3102 66.8396 47.3482 66.3101 47.8931 65.6192C48.435 64.9284 49.0681 65.3088 49.0681 65.3088C49.0681 65.3088 48.8825 64.7853 49.817 64.3045C50.7515 63.8236 51.4426 64.2406 51.4426 64.2406C51.4426 64.2406 52.0088 64.5601 51.0986 65.5036C50.1884 66.447 50.2401 66.6418 50.2401 66.6418C50.2401 66.6418 49.6191 67.5883 50.9159 68.1057L51.2904 68.2427C51.2904 68.2427 50.5567 67.8379 50.6907 67.2535C50.8246 66.6692 51.0925 66.5749 51.0925 66.5749C51.0925 66.5749 52.0849 66.1305 51.9174 66.9553C51.75 67.7801 52.2127 67.8927 52.2127 67.8927C52.2127 67.8927 52.8246 68.3827 52.7485 68.6383C52.7485 68.6383 53.2447 67.777 53.2142 67.6553C53.1808 67.5335 53.1899 67.1927 52.9555 67.0466C52.9555 67.0466 53.954 67.1744 54.0575 67.7466C54.161 68.3187 53.9722 69.0735 53.9722 69.0735C53.9722 69.0735 53.887 70.4004 54.3832 70.6317C54.3832 70.6317 53.8018 70.0809 55.1077 68.9822C56.4106 67.8835 56.7972 66.9735 56.7972 66.9735C56.7972 66.9735 57.1777 66.2218 56.7454 65.6831C56.7454 65.6831 56.3314 66.4957 55.616 66.164C54.9007 65.8323 55.2051 64.7884 55.2051 64.7884C55.2051 64.7884 51.9083 64.9284 53.4791 63.3671C53.4791 63.3671 53.9144 63.0749 54.4654 62.9836C54.9342 63.1571 55.8961 63.5497 56.0361 63.8784L56.1792 64.1706C56.1792 64.1706 56.2218 64.0762 56.2127 63.9453C56.231 63.9849 56.2523 64.0245 56.2705 64.0671C56.2705 64.0671 56.1396 64.8584 56.6571 65.3453C56.6571 65.3453 56.4258 64.834 56.9615 64.3014C57.1381 64.1279 57.2416 63.9058 57.3055 63.6897C57.4547 63.8053 57.5643 63.8723 57.5643 63.8723C57.5643 63.8723 57.4608 63.7445 57.339 63.5619C57.4273 63.1632 57.3877 62.8071 57.3877 62.8071C57.3877 62.8071 57.272 62.3902 57.0376 61.8758C57.0529 61.3128 57.0133 60.6371 56.8702 60.4302C56.8702 60.4302 57.6587 61.5258 58.1396 61.7723C58.6206 62.0189 58.7667 62.0676 58.7667 62.0676C58.7667 62.0676 57.7104 61.1363 57.9418 59.8093C58.097 58.9085 57.9631 58.3028 57.8626 58.0015C57.957 57.9011 58.0544 57.8037 58.1488 57.7033C58.2949 57.7429 58.4684 57.7672 58.6663 57.7611C59.4638 57.7459 59.7774 57.822 59.7774 57.822C59.7774 57.822 60.3344 57.8037 60.7119 58.6772C61.0894 59.5506 61.3542 59.8215 61.3542 59.8215C61.3542 59.8215 60.9767 58.9967 60.9767 58.7533C60.9767 58.5098 60.5536 57.685 60.4075 57.5876C60.3131 57.5237 59.7317 56.8329 59.4334 56.1633C59.8139 55.6733 60.1792 55.1742 60.5232 54.6599C60.7363 54.8029 60.9524 55.0799 60.9828 55.6338C60.9828 55.6338 61.546 54.9368 62.0209 55.7646C62.4958 56.5924 61.4516 56.8968 61.4516 56.8968C61.4516 56.8968 60.3862 56.9333 60.2735 56.279C60.2735 56.279 60.1031 56.3977 60.6541 57.0581C61.205 57.7155 61.2507 57.9102 61.2507 57.9102C61.2507 57.9102 61.272 58.2724 62.0604 59.225C62.0604 59.225 62.7088 59.788 62.7758 60.1045C62.8428 60.4211 63.0315 61.051 64.2857 61.3523C64.2857 61.3523 66.3405 61.4467 66.8397 62.2502C67.339 63.0536 67.8199 63.3001 67.8199 63.3001C67.8199 63.3001 67.1746 62.448 67.1776 62.1558C67.1806 61.8667 66.5109 61.0358 66.3435 60.9628C66.1761 60.8897 66.0056 60.8624 66.0056 60.8624C66.0056 60.8624 66.3527 60.1898 67.2659 60.6828C67.2659 60.6828 68.2704 61.7084 69.068 61.8393C69.8656 61.9671 70.5231 61.5654 70.5231 61.5654C70.5231 61.5654 69.0223 61.5989 68.8184 60.3145C68.6144 59.0302 68.1852 58.2511 68.1852 58.2511C68.1852 58.2511 67.9265 57.4994 66.3374 56.8542C66.3374 56.8542 65.5916 56.4829 65.4272 56.0233C65.2629 55.5607 64.3496 55.0677 64.3496 55.0677C64.3496 55.0677 65.0437 55.7281 65.0132 56.3794C64.9828 57.0307 65.1259 57.2285 65.1259 57.2285C65.1259 57.2285 65.0041 57.2529 65.7712 58.032C66.5383 58.8141 66.6784 59.298 66.6784 59.298C66.6784 59.298 66.7727 59.5415 66.7697 59.7819C66.7697 59.7819 66.7758 59.298 66.1243 58.8811C65.4759 58.4641 65.0193 58.242 65.0193 58.242C65.0193 58.242 64.3709 57.7763 64.4014 57.2194C64.4318 56.6624 64.4105 56.4464 64.4105 56.4464C64.4105 56.4464 64.4897 55.6977 63.7712 55.159C63.7712 55.159 62.6388 54.8333 62.5018 53.9599C62.3649 53.0864 63.1381 53.339 63.1381 53.339C63.1381 53.339 62.5871 52.8247 62.9098 52.079C63.2324 51.3334 64.0757 51.6073 64.0757 51.6073C64.0757 51.6073 64.7514 51.8082 64.8123 53.0408C64.8732 54.2764 65.065 54.4712 65.065 54.4712C65.065 54.4712 65.342 55.6338 66.721 55.8681L67.1076 55.9198C67.1076 55.9198 66.24 55.6703 65.8839 55.0129C65.5277 54.3555 65.6495 54.1881 65.6495 54.1881C65.6495 54.1881 66.0452 53.4668 66.5657 54.392C67.0893 55.3172 67.5246 55.3203 67.5246 55.3203C67.5246 55.3203 68.3679 55.6916 68.5109 55.9837C68.5109 55.9837 68.2065 54.9399 68.0878 54.8181C67.9691 54.6964 67.7042 54.3312 67.4151 54.2307C67.4151 54.2307 68.2644 54.1181 68.7879 54.7055C69.3146 55.2898 69.7651 56.142 69.7651 56.142C69.7651 56.142 70.7423 57.5785 71.2963 57.7063C71.2963 57.7063 70.4287 57.262 70.5414 55.7646C70.654 54.2673 70.2278 53.199 70.2278 53.199C70.2278 53.199 69.9234 52.3012 69.1776 51.8325C69.1776 51.8325 69.5064 52.8034 68.7088 52.6269C67.9112 52.4503 67.3207 51.2573 67.3207 51.2573C67.3207 51.2573 64.9645 52.2251 64.9128 50.1678C64.9128 50.1678 64.9402 50.0521 65.0132 49.906C65.275 50.1343 65.5977 50.0491 65.5977 50.0491C65.5977 50.0491 66.5901 49.6413 66.858 49.7721L67.0437 49.8513C67.0437 49.8513 67.0376 49.833 67.0254 49.8117C67.1867 49.9243 67.3633 50.0552 67.549 50.2195C67.549 50.2195 68.0726 51.096 68.8427 51.4917C68.8427 51.4917 68.2674 51.0017 68.2491 50.3017C68.2309 49.5986 67.3968 48.6004 67.3968 48.6004C67.3968 48.6004 67.0528 48.29 66.5566 47.94C66.724 47.9582 66.8854 47.9613 66.9919 47.9339C67.3176 47.8548 67.4059 47.8182 67.4059 47.8182C67.4059 47.8182 66.5323 47.8091 66.103 47.0909C65.6738 46.3726 65.1959 46.2052 65.1959 46.2052L64.8823 46.1139C64.8823 46.1139 65.2415 46.1657 65.6099 45.8339C65.9782 45.5022 66.1578 45.4109 66.1578 45.4109C66.1578 45.4109 66.4105 45.1766 66.9432 45.4352C67.4759 45.6939 67.7073 45.7122 67.7073 45.7122C67.7073 45.7122 67.1928 45.4779 67.0985 45.3622C67.0011 45.2466 66.4653 45.0335 66.3587 45.0457C66.2522 45.0579 65.0102 44.8479 64.8823 44.367C64.7545 43.8861 64.9554 43.734 64.9554 43.734C64.9554 43.734 65.3481 43.384 65.8382 43.8922C65.8382 43.8922 65.8199 43.3383 66.3801 43.5331C66.9402 43.7279 66.5718 44.294 66.5718 44.294C66.5718 44.294 66.0878 44.7444 65.7682 44.4827C65.7682 44.4827 65.7377 44.6074 66.2613 44.6957C66.7849 44.784 66.8884 44.854 66.8884 44.854C66.8884 44.854 67.0467 45.0153 67.8017 45.1431C67.8017 45.1431 68.3344 45.1461 68.4957 45.2648C68.6571 45.3835 69.001 45.6057 69.7134 45.2374C69.7134 45.2374 70.7179 44.4461 71.278 44.6227C71.8382 44.7992 72.1639 44.717 72.1639 44.717C72.1639 44.717 71.5155 44.577 71.3998 44.4401C71.2841 44.3031 70.6327 44.1844 70.5231 44.2179C70.4135 44.2514 70.3252 44.3092 70.3252 44.3092C70.3252 44.3092 70.1974 43.8557 70.8275 43.7157ZM38.9191 17.104C40.4046 17.104 41.8566 17.244 43.263 17.5119C41.327 17.9105 34.6603 19.8979 30.7152 28.876C30.6665 28.9886 30.6147 29.0982 30.563 29.2077C30.356 29.649 29.5066 31.8646 29.2144 38.9862C29.2144 38.9862 28.8248 44.227 24.4747 45.3409C20.7578 46.2935 17.2602 45.6179 16.3226 45.4018C15.9481 43.7492 15.7472 42.0327 15.7472 40.2675C15.7472 27.4973 26.1429 17.104 38.9191 17.104ZM45.9845 18.2058C55.3147 21.2005 62.0878 29.9594 62.0878 40.2706C62.0878 45.9618 60.0239 51.1782 56.6084 55.2138C56.8641 53.9081 57.3451 50.3808 56.3375 45.5874C55.5947 42.051 53.6465 38.8645 50.782 36.6611C50.2888 36.2837 49.7561 35.9215 49.1777 35.5867C44.5476 32.9116 43.0986 30.9577 43.0986 30.9577C43.0986 30.9577 38.4959 25.5647 45.9845 18.2058ZM17.4184 48.9108L19.8994 50.6943C19.8994 50.6943 26.0881 54.4864 33.3392 53.1473C33.3392 53.1473 35.9054 52.9068 38.916 51.2147C41.9266 49.5226 44.3802 48.853 44.3802 48.853C44.3802 48.853 50.0697 47.0696 53.2477 54.039C53.2477 54.039 54.0301 55.3325 54.645 57.262C50.5111 61.0906 44.9799 63.434 38.913 63.434C29.1961 63.4371 20.8522 57.4172 17.4184 48.9108ZM35.1809 40.2706C35.1809 38.2071 36.8551 36.5363 38.916 36.5363C40.9769 36.5363 42.6511 38.2102 42.6511 40.2706C42.6511 42.331 40.9769 44.0048 38.916 44.0048C36.8551 44.0048 35.1809 42.334 35.1809 40.2706ZM18.6757 24.0278L18.7487 23.7783C18.8187 23.7387 18.8948 23.6991 18.977 23.6565C18.8766 23.7783 18.7761 23.903 18.6757 24.0278ZM10.0852 40.6662C10.0273 40.6571 9.96644 40.651 9.90556 40.6388C9.96949 40.6358 10.0304 40.6449 10.0852 40.6662ZM17.9633 59.718C18.0851 59.3498 18.2921 58.9298 18.6026 59.0028C18.6117 59.0059 18.6239 59.0089 18.633 59.012C18.5052 59.2311 18.2921 59.4685 17.9633 59.718ZM32.9069 68.9092C32.8795 68.9213 32.8552 68.9335 32.8308 68.9457C32.4686 68.3461 31.8537 66.9705 33.4579 66.4866C33.4579 66.4866 33.8141 66.4744 34.1276 66.6631C33.9023 67.6583 33.5888 68.6048 32.9069 68.9092ZM66.0482 49.6443C65.9082 49.6717 65.3785 49.7904 65.2537 49.5834C65.5216 49.346 65.9782 49.2152 66.724 49.6352C66.5109 49.6047 66.1913 49.6169 66.0482 49.6443Z" fill="white"/>
</g>
</svg>