<svg width="24" height="22" viewBox="0 0 24 22" fill="none" xmlns="http://www.w3.org/2000/svg">
<path d="M12 1.83847C10.6038 0.586464 8.77392 -0.071 6.90015 0.00608791C5.02637 0.0831759 3.25672 0.888725 1.96804 2.25119C0.67937 3.61365 -0.026497 5.42537 0.000761073 7.30054C0.0280191 9.1757 0.786248 10.9661 2.11398 12.2906L10.3042 20.4795C10.754 20.9292 11.364 21.1818 12 21.1818C12.636 21.1818 13.246 20.9292 13.6958 20.4795L21.886 12.2906C23.2138 10.9661 23.972 9.1757 23.9992 7.30054C24.0265 5.42537 23.3206 3.61365 22.032 2.25119C20.7433 0.888725 18.9736 0.0831759 17.0999 0.00608791C15.2261 -0.071 13.3962 0.586464 12 1.83847ZM10.5944 3.81016L11.1521 4.36664C11.377 4.59148 11.682 4.71779 12 4.71779C12.318 4.71779 12.623 4.59148 12.8479 4.36664L13.4056 3.81016C13.8481 3.35197 14.3775 2.9865 14.9628 2.73508C15.5481 2.48365 16.1776 2.35132 16.8146 2.34578C17.4515 2.34025 18.0832 2.46163 18.6728 2.70284C19.2624 2.94405 19.798 3.30026 20.2484 3.75069C20.6989 4.20112 21.0551 4.73675 21.2963 5.32632C21.5375 5.91589 21.6589 6.5476 21.6534 7.18458C21.6478 7.82156 21.5155 8.45106 21.2641 9.03635C21.0126 9.62164 20.6472 10.151 20.189 10.5935L12 18.7837L3.81102 10.5935C2.93716 9.68875 2.45362 8.47694 2.46455 7.21911C2.47548 5.96127 2.98 4.75805 3.86946 3.86859C4.75892 2.97914 5.96214 2.47461 7.21997 2.46368C8.47781 2.45275 9.68961 2.93629 10.5944 3.81016Z" fill="currentColor"/>
</svg>
