<svg width="973" height="117" viewBox="0 0 973 117" fill="none" xmlns="http://www.w3.org/2000/svg">
<path d="M20.3444 76.3594C20.3444 76.3594 23.3029 71.9501 20.1404 66.1053C16.9778 60.2946 21.1945 54.4155 21.1945 54.4155C21.1945 54.4155 21.6025 58.9957 24.0169 62.6188C26.4313 66.242 23.5069 72.4628 23.5069 72.4628C23.5069 72.4628 23.1668 73.4541 20.3444 76.3594Z" fill="#1C1C1C"/>
<path d="M643.666 79.8799C643.666 79.8799 646.217 75.1972 642.51 69.6941C638.838 64.1911 642.476 57.936 642.476 57.936C642.476 57.936 643.326 62.482 646.047 65.8659C648.767 69.2498 646.455 75.7099 646.455 75.7099C646.455 75.7099 646.217 76.7353 643.666 79.8799Z" fill="#1C1C1C"/>
<path d="M-18.7279 84.1525C-18.7279 84.1525 -13.457 73.0097 -14.7833 69.8651L-15.5654 67.7117C-15.5654 67.7117 -13.5931 68.3611 -13.2871 70.7879C-12.9811 73.2489 -13.3551 77.3848 -13.7631 79.128C-14.2052 80.837 -16.2115 87.7415 -13.015 88.6302C-9.81847 89.5189 -6.17992 89.3821 -5.05773 86.6819C-3.93554 83.9474 -3.35748 78.3418 -6.14593 74.2744C-8.93438 70.1727 -7.234 62.0719 -7.234 62.0719C-7.234 62.0719 -6.28192 69.8651 -3.56146 71.5057C-0.840997 73.1122 6.40217 79.9825 6.98029 82.6486C6.98029 82.6486 5.24598 73.1806 6.33417 69.4891C7.45637 65.7976 7.89838 64.8063 7.89838 64.8063C7.89838 64.8063 7.45631 74.8212 15.4136 80.2218C23.3369 85.5881 24.9352 91.1595 24.9352 91.1595L25.7853 94.8168C25.7853 94.8168 25.4113 90.681 29.424 86.6477C33.4366 82.6144 34.5928 80.6319 34.5928 80.6319C34.5928 80.6319 37.4493 77.8633 34.8308 71.6083C32.2124 65.3191 32.1444 62.653 32.1444 62.653C32.1444 62.653 34.4907 68.6687 35.749 69.8651C37.0071 71.0272 39.1155 77.3164 38.9114 78.5469C38.7074 79.7774 40.3397 94.1332 45.7466 95.9448C51.1195 97.7222 53.0238 95.4663 53.0238 95.4663C53.0238 95.4663 57.2745 91.1937 51.7316 85.2463C51.7316 85.2463 58.0906 85.7932 56.1863 79.2647C54.282 72.7362 47.6168 76.5986 47.6168 76.5986C47.6168 76.5986 42.176 81.8624 44.9644 85.6906C44.9644 85.6906 43.5022 85.9983 42.8561 79.9141C42.176 73.83 41.4279 72.6337 41.4279 72.6337C41.4279 72.6337 39.6596 70.7196 38.6735 61.9694C38.6735 61.9694 38.9794 55.851 37.7212 53.9369C36.463 52.0228 34.1508 47.9212 38.7755 39.9913C38.7755 39.9913 48.399 28.951 46.7667 22.4225C45.1005 15.8598 46.2226 12.1683 46.2226 12.1683C46.2226 12.1683 47.4128 19.6881 48.9091 21.1236C50.4053 22.5592 51.3575 30.0789 50.9154 31.3094C50.4733 32.5399 49.7592 33.5654 49.7592 33.5654C49.7592 33.5654 54.894 35.1035 56.8663 27.9597C56.8663 27.9597 56.5944 17.7398 59.8589 12.9887C62.9534 8.51103 67.8842 7.00709 68.3943 6.90454C67.7822 7.55397 61.1171 14.7661 66.4219 21.8414C71.9648 29.2244 73.8691 35.2744 73.8691 35.2744C73.8691 35.2744 76.4196 40.3331 71.8969 51.7152C71.8969 51.7152 70.1285 57.3892 71.6588 60.4996C73.2231 63.6442 71.2507 70.7538 71.2507 70.7538C71.2507 70.4803 71.2168 63.8493 67.7822 60.8756C64.3137 57.7993 64.0076 56.0903 64.0076 56.0903C64.0076 56.0903 63.2935 56.603 63.0894 48.7757C62.8514 40.9825 61.0491 37.8721 61.0491 37.8721C61.0491 37.8721 60.369 36.4023 59.3148 35.3086C59.9269 36.0947 61.3211 38.4873 60.471 42.7599C59.4168 48.1604 58.2946 51.6127 58.2946 51.6127C58.2946 51.6127 57.4785 57.2525 60.471 59.8502C63.4634 62.4479 64.4837 63.6442 64.4837 63.6442C64.4837 63.6442 68.7003 66.9255 67.9182 73.3173C67.9182 73.3173 64.0076 80.7345 67.7822 85.759C71.3868 90.5101 73.8352 86.135 74.1072 85.6223C74.1072 85.9641 74.2092 91.0228 79.4121 93.0053C84.819 95.0219 87.5734 89.348 87.5734 89.348C87.5734 89.348 89.8857 84.8703 83.8668 78.4444C77.8478 72.0526 77.7799 70.1043 77.7799 70.1043C77.7799 70.1043 73.1891 62.8922 78.8 54.6889L80.3983 52.5014C80.0922 53.1508 77.5418 58.4488 79.038 63.1999C80.6363 68.2928 82.0985 68.4978 82.0985 68.4978C82.0985 68.4978 87.7435 70.036 85.6011 62.7897C83.4247 55.5092 85.5671 53.2533 85.5671 53.2533C85.5671 53.2533 87.7774 47.2034 87.0293 44.9816C87.4714 45.7336 90.8379 51.7152 90.872 52.8432C90.9059 54.0737 91.4841 57.1841 90.5999 59.1666C91.11 58.7564 95.2927 55.0649 94.9186 49.8011C94.5105 44.1955 92.4022 37.667 92.4022 37.667C92.4022 37.667 89.8517 25.5329 91.9261 22.0465C91.9261 22.0465 89.9538 28.7117 98.1492 35.5478C106.378 42.3839 109.745 49.8695 109.745 49.8695C109.745 49.8695 112.84 55.8852 111.547 62.0035C111.547 62.0035 108.215 55.5092 105.188 60.4996C104.746 61.2858 104.406 62.1403 104.202 63.029C103.624 65.6267 103.964 68.6004 104.406 70.8221C104.406 70.8563 104.406 70.8563 104.406 70.8563C104.712 72.2577 105.018 73.3515 105.188 73.9325C105.222 73.9667 105.222 73.9667 105.222 74.0009C105.29 74.2743 105.358 74.4111 105.358 74.4111C105.358 74.4111 105.324 74.4111 105.256 74.4453C104.304 74.8896 97.6051 78.1709 96.0408 83.2296C95.4968 84.9045 95.5647 86.8186 96.6189 88.8694C97.129 89.929 97.9451 91.057 99.0673 92.1849C99.0673 92.1849 100.462 93.0395 102.332 93.2787C105.868 93.6889 111.071 91.9457 111.785 78.376C111.785 78.376 110.833 74.8896 110.901 70.7879C110.935 69.0447 111.139 67.199 111.649 65.4216C111.649 65.4216 111.309 70.8221 114.812 74.3769C115.254 74.8554 115.696 75.4023 116.036 76.0517C115.764 73.0438 115.39 67.6433 116.308 65.0798C117.566 61.4567 118.076 60.4996 118.076 60.4996C118.076 60.4996 117.158 70.4461 124.844 76.1885C132.495 81.8966 133.855 87.5364 133.855 87.5364L134.535 91.0912C134.535 90.4759 134.705 86.7161 138.514 83.2296C142.696 79.4014 143.955 77.4873 143.955 77.4873C143.955 77.4873 146.879 74.8554 144.567 68.4637C142.322 62.277 142.288 59.6109 142.288 59.44C142.288 59.44 144.397 65.5583 145.587 66.7888C146.777 68.0193 148.613 74.3769 148.341 75.6074C148.069 76.8037 149.055 91.1937 154.36 93.2104C159.631 95.2612 161.604 93.1078 161.604 93.1078C161.604 93.1078 166.058 89.0403 160.821 82.8536C160.821 82.8536 167.112 83.7082 165.514 77.0771C163.916 70.4803 157.081 74.0351 157.081 74.0351C157.081 74.0351 151.436 79.0596 154.02 82.9904C153.85 82.9904 152.524 82.8195 152.184 77.1113C151.81 71.0272 151.096 69.7967 151.096 69.7967C151.096 69.7967 149.43 67.8142 148.851 59.064C148.851 59.064 149.43 52.9799 148.239 50.9974C147.083 49.0491 144.941 44.8791 149.94 37.1543C149.94 37.1543 160.039 26.5925 158.679 19.9957C157.319 13.433 158.611 9.7757 158.611 9.7757C158.611 9.7757 159.461 17.3638 160.889 18.8335C162.318 20.3033 162.93 27.8572 162.42 29.0877C161.91 30.284 161.161 31.2411 161.161 31.2411C161.161 31.2411 166.228 33.0526 168.507 26.0114C168.507 26.0114 168.677 15.7915 172.145 11.2113C175.41 6.93872 180.307 5.70822 180.885 5.57149C180.103 6.35765 173.403 13.1596 178.3 20.3375C183.503 27.9597 185.101 34.078 185.101 34.078C185.101 34.078 187.448 39.2393 182.415 50.348C182.415 50.348 180.375 55.9194 181.769 59.0982C183.197 62.277 180.885 69.3182 180.885 69.3182C180.885 69.3182 181.259 62.5162 177.892 59.2691C174.56 56.0561 174.356 54.3471 174.356 54.3471C174.356 54.3471 173.607 54.8256 173.743 47.0325C173.88 39.2393 172.213 36.0605 172.213 36.0605C172.213 36.0605 171.635 34.6249 170.581 33.4286C171.159 34.2489 172.451 36.6758 171.431 40.9142C170.139 46.2463 168.847 49.6302 168.847 49.6302C168.847 49.6302 167.792 55.2358 170.649 57.9361C173.539 60.6705 174.458 61.901 174.458 61.901C174.458 61.901 178.538 65.3874 177.45 71.6766C177.45 71.6766 173.233 78.9229 176.77 84.0841C180.341 89.2796 183.061 84.1867 183.061 84.1867C183.061 84.1867 182.755 89.553 188.026 91.8089C193.331 94.099 196.323 88.5618 196.323 88.5618C196.323 88.5618 198.806 84.2209 193.127 77.5557C187.482 70.9588 187.448 68.9764 187.448 68.9422C187.448 68.9422 183.197 61.5592 189.148 53.6293L190.848 51.5101C190.474 52.1595 187.72 57.355 189.012 62.1403C190.372 67.2673 191.834 67.5408 191.834 67.5408C191.834 67.5408 197.377 69.3523 195.541 62.0035C193.739 54.6547 195.949 52.5013 195.949 52.5013C195.949 52.5013 198.466 46.4856 197.785 44.2638C197.785 44.2638 201.288 51.1341 201.288 52.3646C201.254 53.5609 201.696 56.7397 200.676 58.688C200.676 58.688 205.573 55.0991 205.437 49.4935C205.267 43.8879 203.464 37.291 203.464 37.291C203.464 37.291 201.458 25.0886 203.702 21.7389C203.702 21.7389 201.424 28.2674 209.279 35.4453C217.169 42.6232 220.195 50.2454 220.195 50.2454C220.195 50.2454 223.018 56.3637 221.453 62.4137C221.453 62.4137 218.427 55.8169 215.196 60.6363C211.966 65.4216 214.72 74.4794 214.72 74.4794C214.72 74.4794 214.278 74.6503 213.564 74.9921C212.986 75.2656 212.272 75.6416 211.456 76.1201C207.103 78.7178 200.744 84.255 207.647 91.9115C207.647 91.9115 210.878 94.0649 214.21 92.8685C215.91 92.2533 217.645 90.7493 218.937 87.6047C219.549 87.2971 220.025 86.8186 220.331 86.1692C221.317 84.05 222.031 79.8458 220.569 76.3252C220.365 74.6503 220.229 72.2235 220.535 69.7283C220.671 68.4295 220.943 67.0964 221.385 65.8317C221.385 65.8317 221.011 69.6258 222.882 73.0438C225.534 75.0947 230.907 80.837 231.281 83.0929C231.281 83.0929 230.125 74.5478 231.281 71.2665C232.403 68.0193 232.879 67.1648 232.879 67.1648C232.879 67.1648 232.063 76.1201 238.932 81.2472C245.767 86.4084 246.991 91.4671 246.991 91.4671L247.57 94.7143C247.57 94.2699 247.672 90.8177 251.208 87.6047C254.949 84.1867 256.071 82.4435 256.071 82.4435C256.071 82.4435 258.723 80.1192 256.649 74.3769C254.677 68.8396 254.643 66.4128 254.643 66.2419C254.643 66.2419 256.479 71.745 257.567 72.8729C258.621 73.9667 260.254 79.709 260.016 80.7686C259.778 81.8624 260.628 94.7826 265.388 96.6284C270.149 98.4741 271.918 96.5258 271.918 96.5258C271.918 96.5258 275.896 92.9027 271.203 87.3313C271.203 87.3313 276.848 88.0833 275.454 82.17C274.026 76.2226 267.871 79.4014 267.871 79.4014C267.871 79.4014 262.804 83.9132 265.116 87.4338C265.116 87.4338 263.824 87.6389 263.484 82.17C263.144 76.7011 262.498 75.5732 262.498 75.5732C262.498 75.5732 261.036 73.7958 260.526 65.9343C260.526 65.9343 261.07 60.4654 260.016 58.688C258.927 56.9448 257.057 53.1849 261.546 46.2805C261.546 46.2805 270.625 36.8125 269.435 30.8993C268.245 24.9518 269.401 21.7047 269.401 21.7047C269.401 21.7047 270.115 28.5066 271.407 29.8397C272.7 31.1727 273.21 37.9746 272.768 39.0342C272.292 40.128 271.645 40.9825 271.645 40.9825C271.645 40.9825 276.168 42.6232 278.243 36.2998C278.243 36.2998 278.413 27.1394 281.541 23.0377C284.67 18.9361 289.464 17.9448 289.464 17.9448C289.464 17.9448 282.391 24.3708 287.05 31.2411C291.709 38.0772 293.137 43.5802 293.137 43.5802C293.137 43.5802 295.211 48.2288 290.689 58.1753C290.689 58.1753 288.852 63.1657 290.111 66.0368C291.335 68.908 289.26 75.1972 289.26 75.1972C289.26 75.1972 289.6 69.1131 286.608 66.2077C283.615 63.3024 283.445 61.7643 283.445 61.7643C283.445 61.7643 282.765 62.1744 282.901 55.2016C283.037 48.1946 281.575 45.3234 281.575 45.3234C281.575 45.3234 281.099 44.1955 280.249 43.2042C280.793 44.0929 281.677 46.2121 280.827 49.6985C279.637 54.4838 278.515 57.5259 278.515 57.5259C278.515 57.5259 277.562 62.5162 280.113 64.9772C282.663 67.4382 283.513 68.532 283.513 68.532C283.513 68.532 287.152 71.6766 286.2 77.3506C286.2 77.3506 282.357 83.8107 285.554 88.4934C288.716 93.142 291.199 88.596 291.199 88.596C291.199 88.596 290.893 93.3812 295.653 95.4321C300.38 97.5171 303.101 92.5267 303.101 92.5267C303.101 92.5267 305.345 88.6301 300.244 82.6486C295.177 76.7011 295.143 74.9238 295.143 74.8896C295.143 74.8896 291.369 68.2586 296.708 61.149L298.238 59.2691C297.898 59.8501 295.415 64.4987 296.572 68.8054C297.796 73.4198 299.088 73.6591 299.088 73.6591C299.088 73.6591 304.053 75.2656 302.455 68.6687C300.822 62.1061 302.829 60.1578 302.829 60.1578C302.829 60.1578 305.107 54.7231 304.495 52.7748C304.495 52.7748 307.623 58.9273 307.623 60.0211C307.589 61.1148 307.963 63.9518 307.113 65.6608C307.589 65.2848 311.466 62.2086 311.364 57.4917C311.228 52.433 309.596 46.5197 309.596 46.5197C309.596 46.5197 307.861 35.5478 309.868 32.5399C309.868 32.5399 307.793 38.3848 314.867 44.8791C321.906 51.3392 324.626 58.1753 324.626 58.1753C324.626 58.1753 327.109 63.6784 325.714 69.1131C325.714 69.1131 323.81 64.943 321.498 66.1394C321.056 66.3444 320.579 66.7888 320.103 67.4724C318.811 69.3865 318.573 72.0184 318.709 74.3769C318.743 75.163 318.811 75.915 318.913 76.5986C319.219 78.5469 319.627 79.9483 319.627 79.9483C319.627 79.9483 319.287 80.085 318.743 80.3585C315.683 81.7599 305.821 87.2287 313.268 95.5688C313.268 95.5688 323.368 102.302 325.238 83.7423C325.238 83.7423 325.204 83.6398 325.17 83.4347C325.034 82.7169 324.694 80.5977 324.694 78.1025C324.728 76.2226 324.966 74.1034 325.646 72.1893C325.646 72.1893 325.34 75.1972 326.701 78.1367C327.959 78.0684 329.013 77.7607 329.659 77.1113C331.189 75.5732 332.345 72.121 329.489 69.284C326.633 66.4128 329.319 61.5592 329.319 61.5592C329.319 61.5592 329.727 66.5154 332.719 67.8826C335.644 69.1814 343.159 74.1376 343.873 75.9492C343.737 75.163 342.853 69.7967 344.315 67.8142C345.948 65.6608 346.56 65.0798 346.56 65.0798C346.56 65.0798 345.166 71.2664 353.837 75.5732C362.542 79.8457 363.903 83.5031 363.903 83.5031L364.549 85.8615C364.549 85.7932 364.583 83.2296 369.479 81.2471C374.478 79.1963 375.975 78.1025 375.975 78.1025C375.975 78.1025 379.511 76.7353 377.029 72.5311C374.818 68.7371 374.716 67.0281 374.716 66.6862C374.716 66.6862 376.927 70.6854 378.253 71.5741C379.613 72.4286 381.483 76.5986 381.143 77.3506C380.803 78.0684 381.415 87.1946 387.502 88.9719C393.589 90.7152 395.936 89.553 395.936 89.553C395.936 89.553 401.241 87.3996 395.392 83.0587C395.392 83.0587 402.635 84.1525 401.037 79.8457C399.438 75.5732 391.345 77.1455 391.345 77.1455C391.345 77.1455 384.714 79.7774 387.434 82.4776C387.094 82.4435 385.768 82.0333 385.564 78.6494C385.326 74.787 384.578 73.9667 384.578 73.9667C384.578 73.9667 382.708 72.5653 382.334 66.9939C382.334 66.9939 383.218 63.234 381.926 61.901C380.633 60.5679 378.321 57.7309 384.374 53.3558C384.374 53.3558 396.48 47.6477 395.154 43.4093C393.827 39.1367 395.426 36.9834 395.426 36.9834C395.426 36.9834 396.14 41.8028 397.738 42.8624C399.336 43.922 399.778 48.7073 399.132 49.4251C398.52 50.1429 397.636 50.6898 397.636 50.6898C397.636 50.6898 403.417 52.2621 406.341 48.0579C406.341 48.0579 406.886 41.6661 411.068 39.1026C415.285 36.5732 421.508 36.3339 421.508 36.3339C421.508 36.3339 412.122 40.128 417.903 45.3918C423.684 50.6556 425.317 54.6547 425.317 54.6547C425.317 54.6547 427.833 58.1069 421.61 64.6012C421.61 64.6012 419.06 67.9167 420.556 70.0359C422.086 72.1893 419.162 76.3935 419.162 76.3935C419.162 76.3935 419.808 72.1209 416.067 69.7967C412.292 67.4724 412.122 66.3786 412.122 66.3786C412.122 66.3786 411.238 66.6179 411.68 61.7301C412.088 56.8764 410.286 54.7231 410.286 54.7231C410.286 54.7231 409.572 53.6293 408.314 52.7748C408.756 53.0824 410.694 54.8256 409.198 57.6968C407.498 60.9097 405.899 62.9264 405.899 62.9264C405.899 62.9264 404.471 66.3444 407.702 68.2927C410.932 70.2752 411.986 71.1297 411.986 71.1297C411.986 71.1297 416.577 73.6932 415.115 77.5557C415.115 77.5557 409.946 81.7257 413.857 85.2804C417.801 88.8694 421.168 85.9299 421.168 85.9299C421.168 85.9299 420.59 89.2454 426.643 91.1595C432.73 93.0736 436.402 89.8606 436.402 89.8606C436.402 89.8606 439.429 87.3655 433.07 82.6827C426.881 78.1025 426.779 76.8037 426.779 76.7353C426.779 76.7353 422.12 71.7108 429.295 67.2673L431.268 66.1735C430.621 66.7546 427.561 69.6258 428.853 72.6337C430.247 75.9833 431.914 76.2568 431.914 76.2568C431.914 76.2568 438.273 77.8974 436.436 73.1464C434.6 68.3611 437.219 67.1989 437.219 67.1989C437.219 67.1989 440.381 63.6442 439.667 62.2086C439.667 62.2086 443.51 66.8571 443.442 67.6091C443.374 68.3611 443.748 70.4119 442.523 71.5057C442.523 71.5057 448.338 69.7283 448.372 66.2077C448.372 62.6529 446.502 58.3462 446.502 58.3462C446.502 58.3462 444.632 50.5189 447.352 48.6047C447.352 48.6047 444.462 52.5013 453.337 57.7309C462.247 62.9606 465.477 67.9851 465.477 67.9851C465.477 67.9851 468.3 71.8817 466.633 75.4365C466.871 75.7099 467.109 75.9492 467.382 76.0859C469.762 77.3847 476.121 82.9903 476.699 85.2121C476.699 85.2121 474.897 77.2138 475.713 74.035C476.529 70.8563 476.903 70.0017 476.903 70.0017C476.903 70.0017 476.869 78.5469 483.772 82.8536C490.675 87.1604 492.24 91.8431 492.24 91.8431L493.056 94.9193C493.056 94.9193 492.614 91.3988 495.878 87.844C499.143 84.2892 500.061 82.546 500.061 82.546C500.061 82.546 502.373 80.085 499.959 74.8554C497.544 69.6258 497.374 67.3357 497.374 67.3357C497.374 67.3357 499.585 72.3944 500.673 73.3514C501.761 74.3085 503.801 79.6065 503.665 80.6319C503.529 81.6915 505.4 93.8256 510.058 95.1928C514.717 96.56 516.213 94.5434 516.213 94.5434C516.213 94.5434 519.682 90.7493 514.785 85.8957C514.785 85.8957 520.192 86.135 518.356 80.6661C516.52 75.163 510.977 78.6836 510.977 78.6836C510.977 78.6836 506.522 83.3663 509.038 86.5109C509.038 86.5109 507.814 86.8186 507.066 81.6573C506.284 76.496 505.604 75.5048 505.604 75.5048C505.604 75.5048 504.039 73.9325 502.917 66.5153C502.917 66.5153 502.985 61.3199 501.829 59.7134C500.673 58.1411 498.599 54.7231 502.271 47.8186C502.271 47.8186 510.092 38.1113 508.494 32.6083C506.862 27.1052 507.678 23.9264 507.678 23.9264C507.678 23.9264 508.936 30.284 510.263 31.4461C511.589 32.6083 512.643 39 512.303 40.0596C511.963 41.1192 511.385 42.0079 511.385 42.0079C511.385 42.0079 515.805 43.17 517.268 37.0175C517.268 37.0175 516.69 28.3015 519.274 24.1657C521.892 20.0298 526.347 18.6968 526.347 18.6968C526.347 18.6968 520.192 25.362 525.157 31.4803C530.122 37.5986 531.924 42.6573 531.924 42.6573C531.924 42.6573 534.27 46.8615 530.802 56.6713C530.802 56.6713 529.476 61.5592 530.904 64.1569C532.332 66.7546 530.87 72.9071 530.87 72.9071C530.87 72.9071 530.666 67.0964 527.605 64.6012C524.545 62.106 524.239 60.6705 524.239 60.6705C524.239 60.6705 523.661 61.1148 523.185 54.4838C522.742 47.8528 521.11 45.255 521.11 45.255C521.11 45.255 520.43 43.9562 519.41 42.9991C519.852 43.4777 521.382 45.4601 520.77 49.4251C520.056 54.0394 519.206 57.0131 519.206 57.0131C519.206 57.0131 518.696 61.8326 521.348 63.9518C523.967 66.071 524.885 67.028 524.885 67.028C524.885 67.028 528.591 69.6941 528.115 75.1288C528.115 75.1288 525.021 81.5889 528.421 85.7248C531.822 89.8606 533.794 85.3488 533.794 85.3488C533.794 85.3488 533.896 89.929 538.555 91.4671C543.214 93.0052 545.356 88.0832 545.356 88.0832C545.356 88.0832 547.159 84.2208 541.82 78.957C536.481 73.6932 536.379 72.0526 536.379 72.0526C536.379 72.0526 532.23 66.1052 536.719 58.9273L538.045 56.979C538.045 56.979 535.699 61.9351 537.229 66.2077C538.759 70.4803 540.017 70.5828 540.017 70.5828C540.017 70.5828 544.846 71.7108 542.772 65.5925C540.697 59.4741 542.432 57.4917 542.432 57.4917C542.432 57.4917 544.132 52.1595 543.384 50.3479C543.384 50.3479 546.886 55.9194 546.954 56.979C547.022 58.0044 547.635 60.6705 546.92 62.3795C546.92 62.3795 550.831 58.9956 550.287 54.2445C549.743 49.4934 547.737 44.0245 547.737 44.0245C547.737 44.0245 545.186 33.8046 546.818 30.7625C546.818 30.7625 545.356 36.4707 552.565 42.0079C559.775 47.5451 562.903 53.8002 562.903 53.8002C562.903 53.8002 565.726 58.8247 564.841 64.0885C564.841 64.0885 561.781 58.688 559.367 62.9947C556.986 67.3357 559.979 74.8212 559.979 74.8212C559.979 74.8212 552.905 78.3418 552.225 83.4689C552.463 83.6056 553.177 84.0158 553.28 85.0753C553.348 85.7931 553.314 86.7844 553.211 87.6731C553.688 88.4592 554.3 89.2796 555.218 90.1341C555.218 90.1341 556.408 90.7835 557.972 90.9202C558.006 89.6214 557.802 88.1858 557.02 86.9553C555.592 84.7677 556.544 80.5293 556.544 80.5293C556.544 80.5293 556.986 84.6652 558.414 85.5197C559.333 86.0666 561.169 87.7756 562.461 89.3137C562.835 88.9377 563.175 88.4934 563.481 87.9807C563.413 86.716 563.413 85.383 563.651 84.5626C564.263 82.6144 564.535 82.1016 564.535 82.1016C564.535 82.1016 564.501 83.1954 564.807 84.631C565.249 82.8878 565.556 80.7344 565.59 77.9658C565.59 77.9658 563.753 72.0526 565.045 66.9597C565.045 66.9597 564.943 71.5399 568.038 74.4452C571.132 77.3506 572.289 85.1779 572.289 85.1779C572.289 85.1779 572.323 88.9036 571.677 93.347C572.969 94.9535 573.275 96.1498 573.275 96.1498L573.683 98.0639C573.683 98.0639 573.513 95.8764 575.689 93.7914C577.832 91.7064 578.478 90.681 578.478 90.681C578.478 90.681 580.008 89.2454 578.682 85.8957C577.355 82.546 577.355 81.1446 577.355 81.1446C577.355 81.1446 578.546 84.3576 579.192 85.007C579.838 85.6564 580.892 88.9719 580.79 89.6214C580.688 90.2708 581.402 97.8589 584.225 98.8501C587.047 99.8413 588.067 98.6792 588.067 98.6792C588.067 98.6792 590.346 96.4575 587.489 93.2787C587.489 93.2787 590.822 93.6205 589.903 90.1682C588.951 86.6818 585.381 88.6643 585.381 88.6643C585.381 88.6643 582.456 91.3987 583.885 93.4496C583.885 93.4496 583.102 93.5863 582.83 90.3733C582.558 87.1604 582.15 86.5109 582.15 86.5109C582.15 86.5109 581.232 85.4855 580.79 80.837C580.79 80.837 580.994 77.624 580.348 76.5986C579.702 75.5732 578.512 73.3856 581.028 69.2498C581.028 69.2498 586.231 63.5074 585.415 60.0552C584.599 56.5688 585.211 54.6547 585.211 54.6547C585.211 54.6547 585.755 58.6538 586.537 59.4058C587.319 60.1577 587.761 64.1569 587.489 64.8063C587.217 65.4557 586.877 65.9684 586.877 65.9684C586.877 65.9684 589.597 66.8229 590.686 63.0973C590.686 63.0973 590.618 57.6967 592.386 55.2016C594.154 52.7406 596.977 52.057 596.977 52.057C596.977 52.057 592.93 55.9877 595.786 59.9185C598.643 63.8492 599.595 67.0964 599.595 67.0964C599.595 67.0964 600.921 69.7967 598.405 75.7441C598.405 75.7441 597.419 78.7178 598.201 80.3926C598.983 82.0675 597.895 85.8273 597.895 85.8273C597.895 85.8273 597.997 82.2042 596.161 80.5635C594.358 78.9229 594.222 78 594.222 78C594.222 78 593.848 78.2734 593.78 74.1376C593.746 70.0017 592.828 68.3611 592.828 68.3611C592.828 68.3611 592.42 67.4724 591.774 66.8229C591.774 66.8229 593.066 68.0876 592.454 70.9246C591.842 73.7616 591.23 75.5732 591.23 75.5732C591.23 75.5732 590.754 78.5469 592.318 79.9483C593.882 81.3497 594.392 81.9991 594.392 81.9991C594.392 81.9991 596.603 83.7765 596.127 87.1262C596.127 87.1262 593.984 91.0228 595.956 93.6888C597.895 96.3891 599.289 93.6547 599.289 93.6547C599.289 93.6547 599.187 96.4916 602.043 97.6196C604.866 98.7476 606.396 95.7739 606.396 95.7739C606.396 95.7739 607.654 93.4496 604.526 89.9973C601.397 86.5451 601.397 85.5197 601.397 85.5197C601.397 85.5197 599.051 81.6915 602.077 77.3847L602.962 76.2226C602.962 76.2226 601.329 79.1963 602.145 81.8966C602.962 84.5968 603.71 84.6994 603.71 84.6994C603.71 84.6994 606.668 85.5539 605.614 81.7257C604.56 77.8633 605.682 76.7011 605.682 76.7011C605.682 76.7011 606.94 73.454 606.532 72.2918C606.532 72.2918 608.505 75.8808 608.505 76.5302C608.505 77.1796 608.777 78.8545 608.301 79.8799C608.301 79.8799 610.851 77.9316 610.681 74.9579C610.511 71.9842 609.457 68.532 609.457 68.532C609.457 68.532 608.232 62.106 609.355 60.2945C609.355 60.2945 608.232 63.7809 612.517 67.4724C616.802 71.1639 618.502 75.1288 618.502 75.1288C618.502 75.1288 620.066 78.3418 619.352 81.5547C619.352 81.5547 617.652 78.1025 616.02 80.7002C614.83 82.6144 615.34 85.6564 615.714 87.1604C616.938 87.2287 618.094 87.0578 618.944 86.4084C618.944 85.4172 619.08 84.3576 619.386 83.3663C619.386 83.3663 619.318 84.4259 619.658 85.6564C619.726 85.5197 619.828 85.4172 619.896 85.2804C620.951 83.0245 621.631 78.3076 619.42 74.7528C617.21 71.2322 618.944 64.4303 618.944 64.4303C618.944 64.4303 619.488 71.0271 621.699 72.4969C623.943 73.9667 629.792 80.0166 630.2 82.2725C630.2 82.2725 629.078 74.2401 630.132 71.1639C631.186 68.0876 631.628 67.2673 631.628 67.2673C631.628 67.2673 630.914 75.7099 637.409 80.5293C643.904 85.3488 645.095 90.0999 645.095 90.0999L645.673 93.2103C645.673 93.2103 645.503 89.6897 649.039 86.4426C652.576 83.1954 653.596 81.5547 653.596 81.5547C653.596 81.5547 656.078 79.333 654.106 73.9325C652.134 68.5661 652.168 66.2761 652.168 66.2761C652.168 66.2761 653.936 71.4373 654.956 72.4969C655.976 73.5565 657.541 78.9228 657.337 79.9483C657.132 80.9737 657.983 93.1419 662.471 94.851C666.96 96.56 668.626 94.7142 668.626 94.7142C668.626 94.7142 672.367 91.262 667.912 86.0666C667.912 86.0666 673.217 86.7502 671.857 81.1788C670.497 75.6073 664.716 78.6152 664.716 78.6152C664.716 78.6152 659.955 82.8878 662.165 86.2033C662.165 86.2033 660.941 86.4084 660.601 81.2471C660.261 76.0859 659.649 75.0604 659.649 75.0604C659.649 75.0604 658.221 73.3856 657.711 65.9684C657.711 65.9684 658.187 60.8414 657.166 59.1665C656.146 57.4917 654.378 53.9711 658.527 47.4426C658.527 47.4426 660.397 49.7669 659.241 44.1954C658.085 38.624 659.139 35.5478 659.139 35.5478C659.139 35.5478 659.887 41.9395 661.077 43.2042C662.301 44.4689 662.097 46.2121 663.798 44.298C664.138 43.922 665.022 46.0412 665.872 48.5022C666.892 51.4075 670.633 52.1595 672.673 49.9036C677.06 45.1183 683.215 38.3847 685.017 35.9579C687.942 32.0955 692.464 31.1043 692.464 31.1043C692.464 31.1043 685.833 37.1884 690.254 43.6485C694.675 50.0745 696.069 55.2699 696.069 55.2699C696.069 55.2699 690.254 49.1174 686.037 58.5513C686.037 58.5513 684.337 63.2682 685.527 65.9684C686.717 68.6687 684.813 74.6161 684.813 74.6161C684.813 74.6161 685.085 68.8396 682.263 66.1393C679.44 63.4391 679.236 61.9693 679.236 61.9693C679.236 61.9693 678.624 62.3795 678.692 55.7826C678.76 49.1858 677.774 46.0754 676.72 50.6214C675.631 55.1332 674.577 58.0044 674.577 58.0044C674.577 58.0044 673.693 62.7213 676.142 65.0114C678.556 67.3015 679.372 68.3611 679.372 68.3611C679.372 68.3611 682.807 71.3006 681.923 76.6328C681.923 76.6328 678.352 82.7511 681.378 87.1262C684.405 91.5013 686.717 87.1945 686.717 87.1945C686.717 87.1945 686.445 91.7064 690.934 93.6205C695.423 95.5346 697.939 90.8177 697.939 90.8177C697.939 90.8177 700.047 87.1262 695.185 81.5206C690.322 75.915 690.356 74.2401 690.356 74.2401C690.356 74.2401 686.751 68.0193 691.75 61.2857L693.212 59.4399C693.212 59.4399 690.492 64.1569 691.648 68.4978C692.804 72.8387 694.063 73.0438 694.063 73.0438C694.063 73.0438 698.755 74.5477 697.191 68.3611C695.627 62.1744 697.497 60.3286 697.497 60.3286C697.497 60.3286 699.605 55.2016 699.027 53.3558C699.027 53.3558 702.02 59.1665 702.02 60.1919C702.02 61.2173 702.394 63.9176 701.544 65.5583C701.544 65.5583 705.692 62.5162 705.522 57.7651C705.386 53.014 703.822 47.4426 703.822 47.4426C703.822 47.4426 702.122 37.1201 703.992 34.2489C703.992 34.2489 702.088 39.7861 708.753 45.8361C715.452 51.8861 718.036 58.312 718.036 58.312C718.036 58.312 720.417 63.5074 719.125 68.6345C719.125 68.6345 716.54 63.0289 713.82 67.1306C711.099 71.2322 713.48 78.8545 713.48 78.8545C713.48 78.8545 699.265 84.4601 707.563 93.6205C707.563 93.6205 714.024 97.8588 717.22 89.6213L716.404 84.6652C716.404 84.6652 716.472 82.3067 718.376 79.6406C718.172 77.4531 718.138 74.3085 719.125 71.5057C719.125 71.5057 718.819 74.6503 720.349 77.4873C720.553 77.3164 720.723 77.1113 720.927 76.9404C725.348 73.3856 726.708 71.5398 726.708 71.5398C726.708 71.5398 729.836 69.113 727.898 62.5846C725.96 56.0561 726.198 53.39 726.198 53.39C726.198 53.39 727.898 59.645 729.02 60.9781C730.142 62.2769 731.571 68.7712 731.231 69.9675C730.891 71.1639 730.959 85.6222 736.127 87.9807C741.296 90.3391 743.405 88.3225 743.405 88.3225C743.405 88.3225 748.097 84.5284 743.235 78.0341C743.235 78.0341 749.458 79.2646 748.301 72.5653C747.145 65.8659 740.072 68.9763 740.072 68.9763C740.072 68.9763 734.087 73.6249 736.433 77.7607C736.433 77.7607 734.971 77.8974 734.971 71.7791C734.971 65.6608 734.359 64.3961 734.359 64.3961C734.359 64.3961 732.829 62.3111 732.795 53.4925C732.795 53.4925 733.747 47.4426 732.693 45.3917C731.639 43.3409 729.802 39.0342 735.243 31.6512C735.243 31.6512 746.023 21.7388 745.105 15.0736C744.187 8.40843 745.683 4.81947 745.683 4.81947C745.683 4.81947 746.057 12.4417 747.383 14.014C748.709 15.5863 748.845 23.1744 748.267 24.3707C747.689 25.5329 746.873 26.4557 746.873 26.4557C746.873 26.4557 751.804 28.6091 754.524 21.7388C754.524 21.7388 755.341 11.5189 759.081 7.17793C762.822 2.837 768.263 2.05085 768.263 2.05085C768.263 2.05085 759.931 8.71605 764.658 16.6801C769.385 24.6442 770.575 30.865 770.575 30.865C770.575 30.865 772.581 36.163 766.868 46.964C766.868 46.964 764.488 52.3988 765.678 55.6801C766.868 58.9614 764.148 65.8317 764.148 65.8317C764.148 65.8317 764.93 59.0298 761.802 55.6117C758.673 52.1595 758.571 50.4505 758.571 50.4505C758.571 50.4505 757.823 50.8948 758.435 43.1017C759.047 35.3085 757.619 32.0272 757.619 32.0272C757.619 32.0272 757.075 30.4207 756.055 29.1218C756.497 29.7713 757.925 32.3348 756.531 36.8124C754.898 42.0762 753.402 45.3917 753.402 45.3917C753.402 45.3917 751.974 50.8948 754.694 53.8343C757.381 56.7397 758.265 58.0385 758.265 58.0385C758.265 58.0385 762.108 61.7642 760.645 68.0193C760.645 68.0193 755.953 74.9921 759.183 80.3926C762.414 85.7931 765.474 80.9053 765.474 80.9053C765.474 80.9053 764.794 86.2375 769.963 88.8694C775.098 91.5013 778.464 86.1349 778.464 86.1349C778.464 86.1349 781.219 81.9649 775.948 74.9237C770.677 67.8825 770.813 65.9342 770.813 65.9342C770.813 65.9342 767.038 58.2778 773.499 50.7239L775.37 48.6731C775.37 48.6731 771.765 54.0052 772.819 59.2349C773.874 64.4645 775.302 64.8063 775.302 64.8063C775.302 64.8063 780.743 66.9597 779.382 59.5083C778.022 52.0569 780.369 50.0403 780.369 50.0403C780.369 50.0403 783.259 44.1612 782.715 41.9053C782.715 41.9053 785.809 49.0149 785.707 50.2112C785.605 51.4417 785.844 54.6205 784.721 56.5004C784.721 56.5004 789.856 53.2533 790.06 47.6135C790.264 42.0079 788.836 35.2743 788.836 35.2743C788.836 35.2743 787.612 22.9351 790.094 19.688C790.094 19.688 787.408 26.0798 794.821 33.7704C802.234 41.461 804.785 49.2541 804.785 49.2541C804.785 49.2541 807.199 55.5775 805.261 61.525C805.261 61.525 802.642 54.6888 799.106 59.3032C795.569 63.9176 797.745 73.1463 797.745 73.1463C797.745 73.1463 780.505 78.6152 789.584 90.0999C789.584 90.0999 800.364 98.3032 803.73 77.7607C803.73 77.7607 802.608 70.5828 804.989 64.8746C804.989 64.8746 804.07 70.1726 807.165 74.1034C810.259 78.0341 810.259 87.3312 810.259 87.3312C810.259 87.3312 810.396 90.9202 808.797 94.8851L817.639 97.8588C821.719 99.3628 823.216 97.6538 823.216 97.6538C823.216 97.6538 826.582 94.475 822.467 89.7922C822.467 89.7922 827.33 90.3391 826.038 85.2804C824.712 80.2217 819.509 83.0587 819.509 83.0587C819.509 83.0587 815.224 86.9894 817.265 89.9631C817.265 89.9631 816.142 90.1682 815.768 85.4855C815.394 80.8028 814.85 79.8457 814.85 79.8457C814.85 79.8457 813.524 78.3418 812.98 71.6082C812.98 71.6082 813.354 66.9255 812.402 65.4215C811.484 63.9176 809.817 60.7388 813.524 54.723C813.524 54.723 821.175 46.4855 820.053 41.4268C818.931 36.3681 819.883 33.5311 819.883 33.5311C819.883 33.5311 820.631 39.3418 821.753 40.4697C822.876 41.5977 823.42 47.4084 823.046 48.3654C822.672 49.2883 822.127 50.0403 822.127 50.0403C822.127 50.0403 826.038 51.3392 827.704 45.9045C827.704 45.9045 827.704 38.0429 830.323 34.4882C832.941 30.8992 837.056 29.9763 837.056 29.9763C837.056 29.9763 831.071 35.6161 835.186 41.4268C839.266 47.2375 840.592 51.9202 840.592 51.9202C840.592 51.9202 842.463 55.851 838.722 64.4645C838.722 64.4645 837.226 68.8054 838.348 71.2322C839.47 73.659 837.77 79.0937 837.77 79.0937C837.77 79.0937 837.974 73.8641 835.356 71.4031C832.737 68.9763 832.567 67.6774 832.567 67.6774C832.567 67.6774 831.989 68.0534 831.989 62.0377C831.989 56.0561 830.697 53.5951 830.697 53.5951C830.697 53.5951 830.255 52.5355 829.405 51.6126C829.881 52.262 830.867 54.1078 830.119 57.3549C829.201 61.4908 828.282 64.0885 828.282 64.0885C828.282 64.0885 827.534 68.4294 829.745 70.4802C831.989 72.5311 832.737 73.4881 832.737 73.4881C832.737 73.4881 835.934 76.12 835.186 80.9737C835.186 80.9737 831.989 86.6134 834.812 90.5442C837.6 94.475 839.64 90.5442 839.64 90.5442C839.64 90.5442 839.47 94.6801 843.551 96.3549C847.666 98.0297 849.91 93.723 849.91 93.723C849.91 93.723 851.78 90.3733 847.292 85.2804C842.803 80.2217 842.803 78.7177 842.803 78.7177C842.803 78.7177 839.47 73.1121 843.925 66.9255L845.251 65.2164C845.251 65.2164 842.837 69.5574 843.925 73.4881C845.047 77.4189 846.169 77.5898 846.169 77.5898C846.169 77.5898 850.454 78.9228 848.992 73.283C847.496 67.6774 849.162 65.9684 849.162 65.9684C849.162 65.9684 851.032 61.2857 850.454 59.6108C850.454 59.6108 853.277 64.8405 853.277 65.7975C853.277 66.7204 853.651 69.1472 852.936 70.6511C853.345 70.3435 856.609 67.5749 856.439 63.5416C856.269 59.2349 854.773 54.1761 854.773 54.1761C854.773 54.1761 853.106 45.0158 854.739 42.2813C854.535 43.0675 853.617 47.716 859.227 52.6722C865.382 58.1069 867.831 63.9176 867.831 63.9176C867.831 63.9176 870.041 68.6003 868.953 73.283C868.953 73.283 866.675 68.5661 864.362 71.6082C864.26 71.7107 864.192 71.8475 864.09 71.9842C862.56 74.3768 862.9 78.1025 863.376 80.461C863.274 81.3155 863.274 82.1358 863.41 82.8878C863.546 84.2892 864.09 85.3829 865.246 85.6564C866.403 85.9298 867.627 86.0324 868.749 85.964C870.177 85.8957 871.47 85.4855 872.32 84.5968C872.66 84.255 872.932 83.8448 873.102 83.3321C874.122 80.5293 874.394 74.8895 871.401 70.9588C868.409 67.0622 869.701 58.8589 869.701 58.8589C869.701 58.8589 871.061 66.5837 873.85 68.0876C876.604 69.5232 884.052 75.9149 884.902 78.581C884.664 77.5898 882.793 69.0788 883.643 65.5924C884.562 61.8326 884.97 60.8072 884.97 60.8072C884.97 60.8072 885.038 70.8562 893.233 75.8124C896.124 77.5556 897.382 79.4014 897.79 81.0078C901.258 77.1113 902.211 75.2655 902.211 75.2655C902.211 75.2655 904.897 72.3602 901.972 66.2077C899.048 60.0894 898.844 57.4233 898.844 57.4233C898.844 57.4233 901.496 63.3023 902.823 64.4303C904.115 65.5582 906.563 71.7107 906.427 72.9412C906.257 74.2059 908.638 88.4592 914.112 89.9631C919.587 91.4671 921.356 89.1428 921.356 89.1428C921.356 89.1428 925.368 84.6651 919.553 78.9912C919.553 78.9912 925.912 79.2304 923.702 72.8045C921.492 66.3444 914.997 70.5486 914.997 70.5486C914.997 70.5486 909.828 76.12 912.82 79.7773C912.82 79.7773 911.358 80.1533 910.406 74.1034C909.42 68.0534 908.604 66.8913 908.604 66.8913C908.604 66.8913 906.767 65.0797 905.339 56.3979C905.339 56.3979 905.339 50.2796 903.979 48.4338C902.619 46.5881 900.102 42.6231 904.319 34.454C904.319 34.454 913.398 22.9351 911.426 16.475C909.42 10.0491 910.338 6.28922 910.338 6.28922C910.338 6.28922 911.936 13.7406 913.5 15.1078C915.065 16.4408 916.391 23.9264 916.017 25.191C915.609 26.4215 914.963 27.447 914.963 27.447C914.963 27.447 920.199 28.7458 921.798 21.5337C921.798 21.5337 920.982 11.3138 924.008 6.42594C926.797 1.84575 931.625 0.136726 932.135 3.52878e-06C931.557 0.649433 925.3 8.20333 930.945 15.0053C936.862 22.1148 939.039 28.0622 939.039 28.0622C939.039 28.0622 941.895 32.9842 937.916 44.5714C937.916 44.5714 936.454 50.3137 938.154 53.3558C939.855 56.3979 938.222 63.6441 938.222 63.6441C938.222 63.6441 937.95 56.808 934.278 53.9027C930.639 51.0315 930.265 49.3567 930.265 49.3567C930.265 49.3567 929.585 49.8694 928.973 42.1104C928.361 34.3172 926.388 31.2752 926.388 31.2752C926.388 31.2752 925.674 29.8738 924.552 28.8484C925.198 29.6687 926.661 31.9588 926.048 36.1972C925.266 41.6661 924.348 45.1525 924.348 45.1525C924.348 45.1525 923.804 50.8264 926.933 53.2874C930.061 55.7143 931.115 56.8764 931.115 56.8764C931.115 56.8764 935.502 59.9526 935.026 66.3444C935.026 66.3444 931.523 73.9666 935.536 78.7861C939.583 83.6055 941.827 78.2734 941.827 78.2734C941.827 78.2734 942.031 83.6397 947.54 85.4171C953.015 87.1603 955.497 81.3496 955.497 81.3496C955.497 81.3496 957.538 76.7694 951.213 70.6511C944.887 64.567 944.717 62.6187 944.717 62.6187C944.717 62.6187 939.787 55.6801 944.956 47.1691L946.418 44.9816C946.01 45.9386 943.935 51.1682 945.636 55.6801C947.506 60.6704 948.968 60.8072 948.968 60.8072C948.968 60.8072 954.681 62.0718 952.165 54.9281C949.648 47.7844 951.655 45.4259 951.655 45.4259C951.655 45.4259 953.559 39.2392 952.709 37.0859C953.185 37.8037 956.857 43.5802 956.959 44.7423C957.027 45.9728 957.776 49.0832 956.959 51.0999C956.959 51.0999 961.516 47.0666 960.836 41.4952C960.19 36.2655 957.98 30.2839 957.708 29.5662C958.626 30.4548 974.302 46.6564 971.616 51.6468C968.861 56.7738 972.5 65.5241 972.5 65.5241C972.5 65.5241 953.967 93.5179 964.747 103.43L962.502 103.43L965.869 117L-6.68999 117L-10.0906 103.328L-5.94189 103.328C-5.36382 100.32 -5.70379 96.0815 -11.6208 94.4409C-21.1763 91.7748 -18.7279 84.1525 -18.7279 84.1525ZM449.427 93.0052C449.427 93.0052 453.337 94.7484 457.35 94.1674C453.745 91.5013 454.901 87.3655 454.901 87.3655C454.901 87.3655 455.752 85.383 456.534 82.9903C452.011 83.8449 440.483 86.716 449.427 93.0052ZM457.928 75.6074C457.146 77.0429 457.146 78.6836 457.418 80.0508C457.86 78.3418 458.132 76.667 457.928 75.6074ZM465.273 78.5469C464.287 77.248 463.879 75.4023 463.743 73.6249C462.519 73.078 460.954 72.9071 459.288 74.0692C459.016 74.2401 458.846 74.4794 458.642 74.6845C458.812 74.9921 458.982 75.3681 459.05 75.8466C459.39 77.8975 459.22 81.4522 458.914 82.922C458.608 84.3917 457.146 90.3392 459.866 90.9886C460.818 91.2279 461.805 91.3304 462.757 91.2962C463.845 90.0315 464.729 88.3225 465.307 85.9982C465.307 85.9982 464.083 82.4093 465.613 79.1621C465.511 78.9229 465.409 78.7178 465.273 78.5469ZM552.599 84.631L552.293 83.7423C552.225 84.5285 552.293 85.3488 552.599 86.1691C552.701 85.5539 552.735 85.007 552.599 84.631ZM614.115 91.7064C613.367 91.4671 612.721 91.1937 612.143 90.886C610.681 92.4925 609.933 94.7826 612.517 97.4829C612.517 97.4829 616.224 99.773 618.23 95.5346C617.652 93.8939 616.462 92.4583 614.115 91.7064Z" fill="#1C1C1C"/>
<path d="M368.017 75.2997C366.453 74.8212 364.991 72.2919 364.991 72.2919C364.991 72.2919 362.985 69.7967 363.291 65.6608C363.597 61.525 360.468 58.8247 359.006 56.7055C357.544 54.5863 356.319 52.1254 356.013 49.1175C355.707 46.1096 358.632 42.0421 358.632 42.0421C358.632 42.0421 356.693 45.0158 358.87 48.0579C361.046 51.0999 361.59 51.1341 361.59 51.1341C360.298 49.8011 360.4 45.6652 360.4 45.6652C360.332 40.4014 363.971 37.667 363.971 37.667C362.236 39.8887 363.393 45.9387 363.393 45.9387C363.393 45.9387 363.869 49.1516 366.385 53.7318C368.901 58.312 367.711 63.7467 367.711 63.7467C367.711 63.7467 367.201 66.8913 366.725 71.0272C366.351 74.206 367.473 75.0605 368.017 75.2997Z" fill="#1C1C1C"/>
<path d="M245.733 70.6854C244.339 67.9851 243.863 67.9167 243.863 67.9167C244.747 69.1472 244.203 72.4286 244.203 72.4286C243.693 76.667 240.497 78.4443 240.497 78.4443C242.129 76.872 241.857 71.8817 241.857 71.8817C241.857 71.8817 241.823 69.2498 240.292 65.319C238.762 61.3883 240.327 57.1499 240.327 57.1499C240.327 57.1499 241.075 54.6889 241.925 51.4417C242.571 48.9466 241.755 48.1262 241.347 47.887C242.571 48.4339 243.421 50.6214 243.421 50.6214C243.421 50.6214 244.747 52.8431 244.067 56.1245C243.387 59.4058 245.597 61.901 246.516 63.7467C247.434 65.5925 248.182 67.7117 248.08 70.1727C247.978 72.6337 245.223 75.5732 245.223 75.5732C245.223 75.5732 247.162 73.3514 245.733 70.6854Z" fill="#1C1C1C"/>
<path d="M888.302 48.0578C886.534 44.7423 885.99 44.6739 885.99 44.6739C887.078 46.1779 886.466 50.2454 886.466 50.2454C885.854 55.475 881.909 57.7309 881.909 57.7309C883.915 55.7484 883.541 49.5959 883.541 49.5959C883.337 41.0166 883.303 45.9386 881.569 41.4952C879.665 36.6415 881.535 31.3777 881.535 31.3777C881.535 31.3777 882.453 28.3015 883.439 24.2682C884.222 21.1577 883.201 20.1665 882.691 19.8589C884.188 20.5425 885.31 23.2086 885.31 23.2086C885.31 23.2086 886.976 25.943 886.16 30.0105C885.344 34.078 888.098 37.1542 889.254 39.4443C890.411 41.7002 891.363 44.3321 891.261 47.3742C891.193 50.4163 887.792 54.0736 887.792 54.0736C887.792 54.0736 890.07 51.3733 888.302 48.0578Z" fill="#1C1C1C"/>
</svg>
