<svg width="28" height="26" viewBox="0 0 28 26" fill="none" xmlns="http://www.w3.org/2000/svg">
<path d="M14 2.25666C12.3711 0.719865 10.2362 -0.0871502 8.05017 0.00747271C5.8641 0.102096 3.7995 1.09088 2.29605 2.76326C0.792598 4.43564 -0.0309132 6.65946 0.000887918 8.96116C0.032689 11.2629 0.91729 13.4606 2.46631 15.0863L12.0215 25.138C12.5463 25.6899 13.258 26 14 26C14.742 26 15.4537 25.6899 15.9785 25.138L25.5337 15.0863C27.0827 13.4606 27.9673 11.2629 27.9991 8.96116C28.0309 6.65946 27.2074 4.43564 25.7039 2.76326C24.2005 1.09088 22.1359 0.102096 19.9498 0.00747271C17.7638 -0.0871502 15.6289 0.719865 14 2.25666Z" fill="#101010"/>
</svg>
