<svg width="24" height="24" viewBox="0 0 24 24" fill="none" xmlns="http://www.w3.org/2000/svg">
<path d="M17.0248 2H6.57034C3.68207 2 1.33301 4.35538 1.33301 7.25141V16.8416C1.33301 19.7376 3.68207 22.093 6.57034 22.093H17.0248C19.9131 22.093 22.2621 19.7376 22.2621 16.8416V7.25141C22.2621 4.35538 19.9131 2 17.0248 2ZM3.18034 7.25141C3.18034 5.37694 4.70089 3.8523 6.57034 3.8523H17.0248C18.8943 3.8523 20.4148 5.37694 20.4148 7.25141V16.8416C20.4148 18.716 18.8943 20.2407 17.0248 20.2407H6.57034C4.70089 20.2407 3.18034 18.716 3.18034 16.8416V7.25141Z" fill="#BCBCBC"/>
<path d="M11.7969 16.9312C14.4833 16.9312 16.669 14.7396 16.669 12.046C16.669 9.35234 14.4833 7.1608 11.7969 7.1608C9.11049 7.1608 6.9248 9.35234 6.9248 12.046C6.9248 14.7396 9.11049 16.9312 11.7969 16.9312ZM11.7969 9.01406C13.4645 9.01406 14.8207 10.3739 14.8207 12.046C14.8207 13.7181 13.4645 15.0779 11.7969 15.0779C10.1293 15.0779 8.7731 13.7181 8.7731 12.046C8.7731 10.3739 10.1293 9.01406 11.7969 9.01406Z" fill="#BCBCBC"/>
<path d="M17.1215 7.94915C17.8453 7.94915 18.4345 7.35838 18.4345 6.63269C18.4345 5.90699 17.8453 5.31622 17.1215 5.31622C16.3978 5.31622 15.8086 5.90699 15.8086 6.63269C15.8086 7.35838 16.3978 7.94915 17.1215 7.94915Z" fill="#BCBCBC"/>
</svg>
