<svg width="24" height="40" viewBox="0 0 24 40" fill="none" xmlns="http://www.w3.org/2000/svg">
<path d="M23.0855 0.835812C23.6471 1.37114 23.9625 2.09711 23.9625 2.85407C23.9625 3.61103 23.6471 4.337 23.0855 4.87233L7.23044 19.9822L23.0855 35.092C23.3716 35.3553 23.5998 35.6703 23.7568 36.0186C23.9138 36.3669 23.9964 36.7415 23.9999 37.1205C24.0033 37.4996 23.9275 37.8755 23.7769 38.2263C23.6263 38.5771 23.4039 38.8958 23.1226 39.1639C22.8414 39.4319 22.5069 39.6439 22.1388 39.7874C21.7707 39.931 21.3762 40.0032 20.9785 39.9999C20.5808 39.9966 20.1877 39.9178 19.8222 39.7682C19.4568 39.6186 19.1262 39.4011 18.8499 39.1285L0.877032 22.0004C0.315467 21.4651 -9.06535e-07 20.7391 -8.73448e-07 19.9822C-8.4036e-07 19.2252 0.315467 18.4992 0.877032 17.9639L18.8499 0.835812C19.4116 0.300642 20.1734 -1.67265e-07 20.9677 -1.32546e-07C21.762 -9.78259e-08 22.5238 0.300642 23.0855 0.835812Z" fill="#BCBCBC"/>
</svg>
