<svg width="36" height="36" viewBox="0 0 36 36" fill="none" xmlns="http://www.w3.org/2000/svg">
<g clip-path="url(#clip0_1981_2384)">
<path d="M21.1661 29.2157V21.7306H14.8148V29.2157H9.96079L15.8448 35.1132C17.0273 36.2956 18.9441 36.2956 20.1314 35.1132L26.0297 29.2157H21.1661ZM6.78517 26.0405V9.95948L0.886887 15.8474C-0.295629 17.0298 -0.295629 18.9464 0.886887 20.1335L6.78517 26.0405ZM14.8148 6.77473V14.2598H21.1661V6.77473H26.0297L20.1314 0.88677C18.9489 -0.29559 17.0321 -0.29559 15.8448 0.88677L9.96079 6.77473H14.8148ZM35.094 15.8474L29.2053 9.95948V26.0262L35.1036 20.1287C36.2861 18.9559 36.3004 17.0393 35.1417 15.857C35.1417 15.857 35.1417 15.857 35.1274 15.8427C35.1274 15.8427 35.1274 15.8427 35.1036 15.8427H35.094V15.8474Z" fill="#DA291C"/>
</g>
<defs>
<clipPath id="clip0_1981_2384">
<rect width="36" height="36" fill="white"/>
</clipPath>
</defs>
</svg>
