<svg width="24" height="24" viewBox="0 0 24 24" fill="none" xmlns="http://www.w3.org/2000/svg">
<path fill-rule="evenodd" clip-rule="evenodd" d="M10.6917 15.0465C10.6746 15.1042 10.6583 15.1524 10.6452 15.2006C9.88613 18.0788 9.80205 18.718 9.02175 20.0548C8.64957 20.6901 8.23086 21.2921 7.76726 21.8681C7.71502 21.9329 7.66605 22.0174 7.56157 21.9969C7.44731 21.9732 7.43833 21.8736 7.42609 21.7851C7.30121 20.9105 7.23265 20.0335 7.26203 19.1502C7.30121 17.9998 7.44811 17.6048 8.98013 11.3695C9.00216 11.2747 8.97768 11.1957 8.94422 11.1095C8.57774 10.152 8.5051 9.18017 8.82506 8.19573C9.51883 6.06883 12.0091 5.90608 12.4449 7.66084C12.7135 8.74642 12.0034 10.1662 11.4581 12.2662C11.0068 13.9989 13.1134 15.2298 14.9139 13.9657C16.5741 12.8003 17.2189 10.005 17.0965 8.02428C16.8549 4.07467 12.3813 3.22138 9.5425 4.49341C6.2883 5.94953 5.54882 9.85411 7.01799 11.6381C7.20408 11.8649 7.55504 12.0039 7.49382 12.2338C7.39914 12.5909 7.3159 12.9512 7.21387 13.3068C7.13796 13.5714 6.70212 13.667 6.42624 13.5588C5.88428 13.3471 5.43372 13.0128 5.06725 12.5736C3.81927 11.0779 3.46259 8.11988 5.11214 5.61532C6.93963 2.84056 10.3391 1.71865 13.4431 2.05917C17.1503 2.46764 19.4937 4.91926 19.932 7.70035C20.1319 8.96764 19.9883 12.0924 18.1502 14.2999C16.0362 16.8376 12.6098 17.0059 11.0288 15.4479C10.9072 15.3286 10.8093 15.1887 10.6901 15.0457L10.6917 15.0465Z" fill="#BCBCBC"/>
</svg>
