<svg width="24" height="24" viewBox="0 0 24 24" fill="none" xmlns="http://www.w3.org/2000/svg">
<path d="M6.69995 9.26001L11.9999 12.33L17.2599 9.28001" stroke="#1C1C1C" stroke-width="1.5" stroke-linecap="round" stroke-linejoin="round"/>
<path d="M12 17.7701V12.3201" stroke="#1C1C1C" stroke-width="1.5" stroke-linecap="round" stroke-linejoin="round"/>
<path d="M6.22998 10.3001C6.22998 9.47012 6.81996 8.46012 7.54996 8.06012L10.75 6.28012C11.43 5.90012 12.55 5.90012 13.24 6.28012L16.44 8.06012C17.16 8.46012 17.76 9.47012 17.76 10.3001V13.6901C17.76 14.5201 17.17 15.5301 16.44 15.9301L13.24 17.7101C12.56 18.0901 11.44 18.0901 10.75 17.7101L7.54996 15.9301C7.18996 15.7301 6.85996 15.3801 6.61996 14.9701" stroke="#1C1C1C" stroke-width="1.5" stroke-linecap="round" stroke-linejoin="round"/>
<path d="M22 15C22 18.87 18.87 22 15 22L16.05 20.25" stroke="#1C1C1C" stroke-width="1.5" stroke-linecap="round" stroke-linejoin="round"/>
<path d="M2 9C2 5.13 5.13 2 9 2L7.95001 3.75" stroke="#1C1C1C" stroke-width="1.5" stroke-linecap="round" stroke-linejoin="round"/>
</svg>
