<svg width="24" height="40" viewBox="0 0 24 40" fill="none" xmlns="http://www.w3.org/2000/svg">
<path d="M0.914486 39.1642C0.352921 38.6289 0.0374503 37.9029 0.0374503 37.1459C0.0374504 36.389 0.352921 35.663 0.914486 35.1277L16.7696 20.0178L0.914487 4.90802C0.628388 4.64469 0.400184 4.32969 0.243194 3.9814C0.0862039 3.63312 0.00356977 3.25853 0.000113539 2.87949C-0.00334269 2.50045 0.0724502 2.12455 0.223066 1.77372C0.373681 1.42289 0.596105 1.10415 0.877358 0.836121C1.15861 0.568089 1.49306 0.356117 1.8612 0.212578C2.22933 0.0690422 2.62377 -0.00318524 3.02151 0.000110662C3.41925 0.00340275 3.81231 0.0821572 4.17777 0.231766C4.54323 0.381378 4.87377 0.59885 5.15009 0.871502L23.123 17.9996C23.6845 18.5349 24 19.2609 24 20.0178C24 20.7748 23.6845 21.5008 23.123 22.0361L5.15009 39.1642C4.58836 39.6994 3.82658 40 3.03229 40C2.238 40 1.47622 39.6994 0.914486 39.1642Z" fill="#BCBCBC"/>
</svg>
