<svg width="14" height="14" viewBox="0 0 14 14" fill="none" xmlns="http://www.w3.org/2000/svg">
<path d="M0 6.4668C0.000122074 3.94738 1.43807 1.76916 3.54004 0.701172C3.81546 0.561422 4.15195 0.671016 4.29199 0.946289C4.43199 1.22183 4.32239 1.55919 4.04688 1.69922C2.30601 2.58373 1.11926 4.38482 1.11914 6.4668C1.11914 9.42229 3.51134 11.8153 6.4668 11.8154C9.4224 11.8154 11.8154 9.4224 11.8154 6.4668C11.8153 3.51134 9.42229 1.11914 6.4668 1.11914C6.15785 1.11897 5.90723 0.868556 5.90723 0.55957C5.90723 0.250584 6.15785 0.00017339 6.4668 0C10.0405 0 12.9344 2.89315 12.9346 6.4668C12.9346 10.0406 10.0406 12.9346 6.4668 12.9346C2.89315 12.9344 0 10.0405 0 6.4668Z" fill="white"/>
<path d="M11.3573 11.3573C11.5758 11.1387 11.9297 11.1387 12.1483 11.3573L13.3924 12.6004C13.611 12.819 13.611 13.1739 13.3924 13.3924C13.1739 13.611 12.819 13.611 12.6004 13.3924L11.3573 12.1483C11.1387 11.9297 11.1387 11.5758 11.3573 11.3573Z" fill="white"/>
</svg>
