<svg width="24" height="24" viewBox="0 0 24 24" fill="none" xmlns="http://www.w3.org/2000/svg">
<path d="M2.52216 11.2943C2.56785 11.2717 2.61354 11.251 2.65922 11.2312C3.43781 10.8824 4.22665 10.5561 5.01456 10.2298C5.05746 10.2298 5.12925 10.183 5.16841 10.1659C5.22902 10.1406 5.28962 10.1154 5.35116 10.0902C5.46772 10.0415 5.5852 9.99372 5.70176 9.94505C5.9358 9.84861 6.16891 9.75217 6.40295 9.65483C6.87011 9.46196 7.33819 9.26819 7.80535 9.07532C8.74058 8.68867 9.67582 8.30203 10.6111 7.91538C11.5463 7.52873 12.4815 7.14209 13.4168 6.75544C14.352 6.3688 15.2872 5.98215 16.2225 5.5955C17.1577 5.20886 18.0929 4.82221 19.0282 4.43557C19.2361 4.34994 19.4617 4.22016 19.6837 4.1823C19.8711 4.15076 20.0539 4.08768 20.2413 4.05343C20.5984 3.98763 20.9928 3.96059 21.3341 4.10389C21.4525 4.15346 21.5607 4.22377 21.653 4.31119C22.0866 4.72668 22.026 5.40803 21.9346 5.99206C21.2949 10.0622 20.6553 14.1315 20.0147 18.2016C19.927 18.7595 19.8086 19.3724 19.3517 19.7248C18.9657 20.0231 18.4165 20.0573 17.9409 19.9302C17.4645 19.8032 17.0439 19.5355 16.6318 19.2714C14.9217 18.1773 13.2116 17.0822 11.5015 15.9881C11.095 15.7276 10.6428 15.3887 10.6474 14.9174C10.6502 14.6335 10.8255 14.3802 11.0045 14.1549C12.4899 12.282 14.6355 10.9941 16.2299 9.2069C16.4547 8.95545 16.6318 8.49941 16.3232 8.3543C16.1395 8.26778 15.9278 8.38494 15.7609 8.4976C13.6527 9.9135 11.5444 11.3294 9.43618 12.7444C8.74804 13.2059 8.02726 13.6817 7.19833 13.7953C6.45704 13.8971 5.71016 13.698 4.99219 13.4934C4.39076 13.3221 3.79027 13.1473 3.19164 12.9661C2.87368 12.8706 2.54546 12.7678 2.29929 12.5506C2.05313 12.3343 1.91233 11.9702 2.06058 11.6818C2.1529 11.5006 2.33381 11.3862 2.52309 11.2934L2.52216 11.2943Z" fill="#BCBCBC"/>
</svg>
