<svg width="24" height="24" viewBox="0 0 24 24" fill="none" xmlns="http://www.w3.org/2000/svg">
<path d="M21 6.60298V9.87687C20.408 9.82161 19.6418 9.69137 18.7909 9.38944C17.6813 8.99574 16.8549 8.457 16.3149 8.03962V14.6584L16.3017 14.6377C16.3108 14.769 16.3149 14.9022 16.3149 15.0373C16.3149 18.325 13.5536 21 10.1575 21C6.76132 21 4 18.3241 4 15.0373C4 11.7506 6.76132 9.07369 10.1575 9.07369C10.4896 9.07369 10.8157 9.09935 11.1346 9.14868V12.3762C10.8279 12.2696 10.4998 12.2124 10.1575 12.2124C8.54957 12.2124 7.24024 13.4793 7.24024 15.0373C7.24024 16.5953 8.54957 17.8623 10.1575 17.8623C11.7653 17.8623 13.0747 16.5944 13.0747 15.0373C13.0747 14.9791 13.0737 14.9209 13.0696 14.8627V2H16.4494C16.4616 2.27726 16.4739 2.5565 16.4851 2.83377C16.5075 3.37942 16.7082 3.90336 17.0577 4.33257C17.4684 4.83678 18.0736 5.42288 18.9254 5.89058C19.7223 6.32769 20.4701 6.51516 21 6.60397V6.60298Z" fill="#BCBCBC"/>
</svg>
