<svg xmlns="http://www.w3.org/2000/svg" width="420" height="400" viewBox="0 0 420 400" fill="none">
<g clip-path="url(#clip0_15220_18824)">
<path d="M419.255 0C419.255 0 339.564 223.301 311.621 284.273C283.677 345.244 236.018 400 155.064 400C69.4247 400 0 330.923 0 245.714C0.000121946 174.883 47.9714 115.203 113.35 97.0775L154.076 188.659C122.857 189.184 97.7123 214.526 97.7122 245.714C97.7122 277.23 123.389 302.779 155.064 302.779C186.739 302.779 211.681 277.23 211.681 245.714C211.681 230.919 206.923 217.836 201.797 206.614C196.67 195.393 110.247 0 110.247 0H419.255Z" fill="#FFBE0C"/>
</g>
<defs>
<clipPath id="clip0_15220_18824">
<rect width="420" height="400" fill="white"/>
</clipPath>
</defs>
</svg>